<?xml version="1.0" standalone="no"?>
<!DOCTYPE svg PUBLIC "-//W3C//DTD SVG 20010904//EN"
 "http://www.w3.org/TR/2001/REC-SVG-20010904/DTD/svg10.dtd">
<svg version="1.0" xmlns="http://www.w3.org/2000/svg"
 width="1024.000000pt" height="1024.000000pt" viewBox="0 0 1024.000000 1024.000000"
 preserveAspectRatio="xMidYMid meet">

<g transform="translate(0.000000,1024.000000) scale(0.100000,-0.100000)"
fill="#000000" stroke="none">
<path d="M0 9666 l0 -574 88 -30 c48 -17 125 -44 172 -60 47 -17 314 -112 595
-211 280 -100 515 -187 522 -194 10 -10 11 -20 4 -39 -5 -14 -7 -35 -4 -47 4
-16 -1 -23 -23 -31 -16 -5 -37 -15 -47 -20 -14 -9 -156 36 -659 205 -352 118
-642 215 -644 215 -2 0 -4 -846 -4 -1880 l0 -1880 28 -1 c122 -5 383 10 399
23 10 8 13 6 14 -8 2 -32 8 -78 14 -110 5 -32 5 -32 93 -41 61 -7 89 -7 95 1
5 8 10 7 16 -3 6 -10 30 -15 76 -15 l67 -1 15 39 c13 30 13 40 3 46 -13 8 -5
50 11 50 5 0 9 9 9 20 0 23 10 26 28 8 7 -7 12 -8 12 -4 0 5 -17 24 -37 42
l-38 33 33 1 c20 0 32 5 32 14 0 7 3 28 6 45 5 24 3 31 -9 31 -16 0 -30 -26
-21 -41 3 -5 0 -9 -5 -9 -6 0 -11 5 -11 10 0 12 -69 13 -161 3 -44 -4 -57 -9
-44 -14 11 -4 -27 -5 -85 -2 -59 4 -108 11 -112 17 -4 6 -7 26 -6 44 1 25 4
30 10 18 8 -13 30 -16 136 -15 79 1 118 4 102 9 -24 8 -24 8 6 9 16 1 36 7 42
13 7 7 32 17 55 23 l42 10 -2 69 c-1 37 -7 74 -13 81 -8 10 -8 15 0 20 12 7
10 145 -2 145 -5 0 -8 7 -8 15 0 8 -5 15 -11 15 -5 0 -7 5 -4 10 3 6 -2 10
-12 10 -10 1 -46 3 -80 6 -59 5 -63 4 -63 -15 0 -27 -16 -27 -30 -1 -6 12 -21
20 -35 20 -16 0 -25 6 -25 15 0 18 -5 19 -29 3 -15 -9 -23 -9 -35 1 -27 23
-18 40 23 47 30 5 40 11 43 29 6 28 -19 52 -59 57 l-28 3 -3 88 c-3 82 -2 88
19 96 l23 8 -22 5 c-19 5 -22 14 -24 70 -3 102 1 161 11 171 6 6 72 5 176 -2
92 -7 169 -10 172 -8 2 3 -40 8 -94 12 -54 4 -134 10 -178 13 l-80 7 0 30 0
30 115 -2 c63 -2 138 -5 165 -8 39 -5 47 -4 38 6 -7 7 -68 14 -163 19 -83 4
-154 10 -158 14 -4 4 -7 116 -6 249 l1 242 46 146 c25 81 60 200 77 265 17 66
52 188 77 272 46 153 49 158 93 154 74 -8 100 -8 100 0 0 5 5 6 10 3 6 -4 7
-11 4 -17 -4 -7 -2 -8 4 -4 6 4 10 12 8 19 -1 7 -1 9 1 5 3 -5 11 -8 19 -8 9
0 12 -5 8 -12 -4 -7 -3 -8 5 -4 6 4 8 12 5 18 -5 7 -1 9 9 5 9 -3 23 0 31 8
17 17 46 20 46 5 0 -5 5 -10 11 -10 6 0 9 7 5 15 -5 13 -2 14 17 3 12 -7 30
-11 41 -9 11 1 16 -2 12 -8 -4 -6 -3 -11 3 -11 5 0 12 4 15 9 7 10 39 5 73
-12 13 -5 26 -7 30 -4 3 4 -2 7 -13 7 -17 1 -17 2 -2 10 18 11 51 3 43 -11 -3
-5 7 -12 22 -15 15 -4 42 -18 60 -31 18 -14 37 -22 43 -18 5 3 10 1 10 -4 0
-6 -8 -11 -19 -11 -14 0 -17 -6 -13 -25 3 -20 1 -24 -12 -19 -12 5 -15 2 -10
-11 4 -10 -1 -22 -15 -31 -47 -34 11 -43 151 -24 40 5 89 11 108 14 49 5 64 9
72 21 5 6 8 5 8 -3 0 -10 5 -10 23 -1 12 7 45 12 73 12 47 0 51 2 46 20 -4 14
-2 18 8 12 7 -4 16 -2 21 6 6 10 9 11 9 1 0 -10 4 -10 20 0 11 7 20 19 20 26
0 7 -5 10 -12 6 -7 -4 -8 -3 -4 5 6 9 11 9 23 0 12 -11 14 -10 11 7 -2 13 2
19 15 18 9 -1 17 2 17 8 0 5 5 6 11 3 6 -4 8 -14 5 -22 -3 -8 -2 -12 3 -9 5 3
11 -5 13 -19 3 -15 1 -22 -5 -18 -7 4 -8 -1 -3 -12 4 -11 -32 -153 -90 -359
-53 -188 -119 -432 -148 -543 -35 -139 -55 -200 -62 -195 -11 7 -10 30 11 157
4 27 2 25 -20 -15 -13 -25 -34 -74 -47 -110 l-23 -65 3 -699 c3 -764 1 -738
60 -764 15 -6 56 -16 91 -21 75 -12 92 -26 119 -96 41 -104 210 -486 227 -511
31 -47 130 -84 262 -98 121 -12 144 -18 142 -39 0 -9 -2 -9 -6 0 -2 7 -16 13
-30 13 -20 0 -24 -4 -20 -20 3 -13 0 -20 -9 -20 -8 0 -17 -7 -20 -15 -3 -8
-15 -17 -27 -21 -20 -6 -20 -7 -2 -20 16 -12 16 -14 3 -14 -9 0 -20 5 -23 10
-3 6 -16 10 -28 9 -20 -1 -20 -2 3 -8 16 -4 21 -9 13 -14 -7 -4 -10 -14 -6
-22 6 -18 -1 -19 -28 -5 -13 8 -19 7 -19 0 0 -6 -4 -9 -9 -5 -5 3 -12 -3 -14
-12 -3 -10 -5 -3 -6 15 0 17 -5 32 -9 32 -5 0 -7 13 -6 30 1 16 -2 28 -6 25
-4 -3 -7 -23 -6 -45 2 -35 -1 -40 -18 -39 -12 0 -15 3 -9 6 16 6 17 29 1 39
-7 4 -8 3 -4 -4 4 -7 1 -12 -9 -12 -11 0 -15 -5 -11 -15 3 -8 0 -15 -7 -15 -7
0 -4 -5 5 -11 27 -15 22 -32 -7 -25 -25 6 -36 -8 -12 -17 8 -3 7 -9 -6 -19
-11 -8 -18 -21 -17 -29 1 -7 2 -34 1 -59 -1 -33 -4 -41 -11 -30 -9 13 -14 7
-11 -12 2 -15 -27 -8 -33 7 -8 22 -25 18 -19 -4 3 -10 0 -22 -6 -26 -6 -3 -11
-3 -10 2 1 4 1 15 0 23 -1 13 -2 13 -11 0 -8 -12 -10 -12 -10 -1 0 8 -16 -7
-35 -33 -20 -25 -40 -46 -45 -46 -6 0 -10 -9 -10 -20 0 -27 -21 -70 -35 -70
-6 0 -22 19 -35 42 -12 22 -18 38 -13 35 24 -15 19 24 -12 114 -54 153 -52
151 -47 59 2 -47 9 -94 14 -105 18 -35 -6 -4 -82 105 -310 444 -314 450 -291
436 6 -4 11 0 11 9 0 11 -5 15 -14 12 -10 -4 -43 37 -109 136 -103 157 -139
196 -203 226 -127 60 -398 46 -492 -26 -32 -24 -38 -25 -125 -20 -90 6 -331
31 -415 43 l-43 6 3 -343 4 -344 36 -85 c19 -47 39 -99 42 -116 7 -31 6 -32
-38 -38 l-46 -7 0 -235 0 -234 38 -1 c30 0 33 -2 16 -9 -11 -4 -28 -24 -37
-43 -15 -31 -17 -85 -17 -455 0 -364 2 -421 15 -426 8 -3 15 -2 15 2 0 5 25
16 55 26 30 9 60 23 68 30 10 11 13 90 15 377 3 515 7 569 47 569 16 0 56
-146 55 -202 -1 -58 -1 -325 0 -532 l1 -168 31 6 c16 3 70 22 119 42 50 20 91
35 93 33 2 -2 15 -35 29 -74 39 -107 52 -136 90 -190 33 -49 39 -79 12 -69 -7
3 -16 1 -19 -4 -3 -5 5 -8 18 -7 30 4 40 -3 60 -42 9 -18 24 -37 33 -43 17
-11 17 -11 1 -6 -10 3 -18 2 -18 -3 0 -7 -76 -9 -300 -10 -102 0 -109 0 -107
13 1 6 -5 9 -13 7 -8 -3 -27 -5 -42 -5 -14 -1 -24 -4 -22 -8 2 -4 0 -10 -6
-13 -6 -4 -9 -1 -8 7 4 16 -73 20 -85 4 -6 -8 -10 -8 -13 1 -3 7 -12 9 -20 6
-8 -3 -14 1 -14 8 0 12 -2 12 -9 0 -5 -7 -14 -10 -20 -7 -6 4 -11 2 -11 -5 0
-6 -9 -1 -19 12 -11 13 -23 21 -27 16 -4 -4 1 -13 11 -21 14 -10 15 -15 5 -21
-9 -5 -11 -4 -6 3 4 7 2 12 -3 12 -8 0 -11 -344 -11 -1140 l0 -1140 1938 0
c1537 0 1941 3 1951 12 11 11 12 10 6 -1 -6 -10 1 -12 36 -9 24 3 53 8 63 13
13 6 17 5 13 -2 -4 -6 4 -10 18 -10 23 0 24 1 8 13 -17 12 -17 13 4 14 12 0
27 -8 33 -17 10 -16 11 -15 7 4 -3 15 1 24 12 27 23 7 93 -2 100 -12 11 -16
36 -20 83 -12 31 4 49 3 52 -4 3 -6 14 0 25 14 18 22 26 21 22 -2 -2 -14 19
-8 25 6 6 16 42 10 63 -12 13 -13 16 -12 22 4 4 11 8 15 8 10 1 -5 8 -3 16 4
11 9 15 10 15 0 0 -6 12 -11 28 -9 15 1 38 -3 52 -8 28 -12 40 -8 40 12 0 8 5
17 11 21 7 4 9 0 5 -13 -6 -17 -3 -20 19 -16 13 3 22 10 19 15 -4 6 5 3 19 -6
18 -13 26 -14 29 -5 3 8 11 10 22 6 9 -4 14 -11 11 -17 -3 -6 1 -7 10 -4 11 5
13 10 5 19 -8 9 -8 15 0 20 5 3 10 1 10 -4 0 -6 10 -9 23 -7 12 2 28 -1 34 -6
7 -6 22 -8 33 -5 11 3 18 1 15 -3 -3 -5 7 -10 22 -12 31 -3 83 12 83 25 0 4 5
5 10 2 6 -4 8 -11 5 -16 -4 -5 13 -9 37 -9 33 0 40 -3 28 -11 -12 -8 -9 -9 10
-4 54 13 60 14 60 4 0 -16 211 -10 238 7 19 13 22 13 22 0 0 -13 108 -15 843
-16 749 0 844 1 844 15 0 18 -18 20 -36 2 -11 -9 -13 -9 -7 1 4 7 1 12 -8 12
-8 0 -19 8 -25 17 -8 14 -12 15 -25 4 -9 -7 -16 -10 -16 -6 0 4 7 13 15 19 12
9 7 11 -25 10 -22 -1 -43 2 -46 7 -3 5 5 9 18 9 23 1 23 1 3 16 -11 8 -28 13
-38 10 -13 -3 -23 7 -36 35 -18 36 -18 40 -3 49 16 8 16 11 0 40 -9 16 -13 30
-8 30 6 0 10 8 10 18 0 10 5 23 11 29 7 7 7 13 0 17 -6 4 -3 18 9 39 10 18 24
54 30 80 6 27 17 56 25 64 9 8 13 19 10 24 -4 5 -2 9 4 9 5 0 17 25 26 56 13
45 19 55 33 50 13 -5 13 -3 -2 9 -18 14 -18 15 -2 15 9 0 14 5 11 10 -3 6 -3
10 2 11 43 6 88 3 138 -9 33 -8 77 -13 97 -13 26 1 64 -13 133 -49 53 -27 101
-50 106 -50 6 0 24 -9 40 -21 16 -11 29 -18 29 -15 0 3 21 -6 48 -19 26 -13
59 -27 75 -30 15 -4 27 -10 27 -14 0 -4 17 -13 38 -20 20 -8 39 -17 42 -20 11
-13 73 -41 91 -41 10 0 19 -5 19 -12 0 -6 3 -8 7 -5 3 4 20 -8 37 -26 26 -27
28 -32 13 -35 -14 -3 -15 -7 -7 -17 8 -9 8 -15 0 -20 -14 -9 -13 -27 2 -20 7
4 4 -1 -6 -9 -11 -9 -26 -16 -34 -16 -11 0 -10 -3 2 -16 23 -22 20 -29 -22
-50 -20 -10 -39 -20 -40 -21 -2 -1 1 -10 8 -20 9 -14 10 -15 6 -1 -5 19 20 33
30 16 4 -7 3 -8 -4 -4 -8 5 -12 0 -12 -13 0 -15 -6 -21 -21 -21 -16 0 -20 -5
-16 -19 2 -10 1 -25 -4 -32 -6 -10 -9 -8 -9 8 l0 22 -42 -19 c-24 -11 -42 -25
-40 -32 2 -9 0 -10 -7 -3 -13 13 -81 7 -81 -6 0 -5 8 -9 18 -10 14 0 14 -2 -3
-9 -11 -5 538 -9 1263 -9 l1282 -1 0 1255 0 1254 -27 -4 c-16 -3 -201 -21
-413 -40 -531 -49 -817 -79 -1400 -149 -113 -13 -308 -36 -435 -51 -126 -14
-328 -37 -448 -51 -120 -14 -222 -24 -228 -22 -10 3 -20 25 -91 198 -45 109
-68 202 -75 308 -9 144 -27 128 -20 -19 6 -139 16 -180 88 -348 27 -63 48
-119 46 -125 -2 -6 -39 -16 -83 -23 -218 -33 -304 -52 -346 -76 -44 -26 -87
-28 -114 -6 -8 6 -14 17 -14 24 0 6 -7 26 -16 43 -17 34 -49 42 -73 19 -11
-10 -13 -9 -8 6 5 12 3 16 -5 11 -6 -4 -34 -8 -62 -10 -28 -1 -57 -3 -64 -3
-7 -1 -10 -7 -7 -13 4 -7 -3 -2 -15 12 -12 14 -19 20 -16 13 9 -16 -15 -22
-42 -10 -17 8 -29 7 -44 -2 -15 -9 -18 -10 -13 0 5 8 4 10 -3 5 -19 -11 -95
-14 -115 -4 -10 5 -24 6 -30 1 -7 -5 -24 -8 -39 -7 -15 0 -25 -3 -22 -7 7 -11
-34 -51 -46 -44 -5 3 -11 1 -15 -5 -4 -6 18 -10 62 -10 221 -2 569 -13 574
-18 7 -9 61 -131 63 -146 4 -22 36 -74 48 -79 7 -2 -11 -3 -39 -2 -29 1 -51
-1 -48 -5 2 -4 -9 -7 -26 -8 -19 0 -27 3 -23 10 5 7 2 8 -7 2 -19 -12 -70 -14
-63 -2 3 5 -4 4 -16 -4 -18 -10 -24 -10 -27 0 -3 6 -9 12 -14 12 -6 0 -8 -4
-4 -9 6 -11 -261 -8 -272 3 -3 3 -12 1 -20 -5 -7 -6 -13 -8 -13 -3 0 5 -71 9
-158 9 -86 0 -269 3 -407 6 -137 4 -371 9 -520 13 -148 3 -326 9 -395 12 -69
3 -202 6 -295 8 -94 1 -176 6 -183 10 -7 4 -12 2 -12 -4 0 -6 -4 -8 -10 -5 -5
3 -56 7 -113 9 -57 1 -109 6 -117 11 -9 5 -15 4 -18 -3 -5 -16 -39 -15 -45 1
-4 9 -6 8 -6 -2 -1 -11 -4 -11 -16 -1 -8 7 -21 10 -29 7 -8 -3 -17 0 -20 8 -3
10 -17 12 -50 9 -25 -3 -47 -1 -51 5 -3 7 0 8 9 5 11 -4 14 0 11 15 -2 12 0
19 5 16 6 -3 7 1 4 9 -3 8 -12 12 -20 9 -16 -6 -46 15 -39 27 3 5 1 11 -5 15
-5 3 -10 -2 -10 -13 0 -10 11 -25 25 -32 28 -15 33 -27 10 -27 -8 0 -12 4 -9
8 2 4 0 10 -6 14 -13 8 -42 -20 -32 -31 4 -5 -1 -2 -10 5 -18 13 -15 36 3 26
5 -4 9 -1 9 4 0 6 -5 11 -11 11 -5 0 -7 5 -3 12 4 7 3 8 -5 4 -6 -4 -14 -1
-17 7 -3 8 -13 13 -24 10 -10 -3 -21 0 -24 6 -4 7 -1 9 8 5 10 -4 14 0 12 12
-2 10 -9 20 -17 22 -11 3 -11 1 1 -7 12 -9 11 -11 -8 -11 -13 0 -21 -4 -18 -8
3 -5 -2 -9 -10 -9 -10 0 -11 4 -4 11 15 15 12 30 -4 17 -11 -9 -16 -9 -21 -1
-4 7 -16 9 -27 7 -16 -4 -17 -3 -7 9 6 7 15 12 19 9 5 -3 11 -1 15 5 3 5 11
10 18 10 6 0 2 -7 -9 -16 -19 -15 -19 -15 1 -6 11 5 26 7 33 5 6 -3 12 0 12 6
0 6 -3 10 -7 9 -5 0 -16 2 -27 7 -11 5 -26 4 -37 -3 -35 -22 -95 24 -75 56 3
5 -1 9 -9 9 -8 0 -12 -4 -10 -8 3 -3 -2 -12 -10 -19 -15 -12 -16 -11 -19 13 0
6 -13 12 -28 11 -35 0 -46 31 -11 34 14 1 21 -2 18 -8 -3 -6 -1 -10 4 -10 6 0
11 4 11 9 0 5 24 8 53 6 28 -2 52 -4 52 -5 0 0 38 -3 85 -4 47 -2 132 -7 190
-10 58 -4 186 -9 285 -12 218 -6 228 -6 237 -19 5 -6 8 -6 8 1 0 17 36 24 51
10 8 -7 10 -7 6 0 -4 6 6 17 21 24 23 12 24 14 8 18 -17 4 -16 5 5 16 13 7 26
9 29 5 3 -5 12 -4 20 1 12 8 11 10 -5 11 -11 1 -24 0 -30 -1 -5 -1 -26 -2 -45
-2 -19 0 -41 -5 -49 -11 -12 -10 -13 -9 -8 6 4 11 3 16 -3 12 -18 -11 -73 -14
-91 -4 -11 6 -20 5 -24 -1 -4 -6 -13 -7 -24 -1 -10 6 -27 8 -38 5 -12 -3 -23
-1 -27 4 -4 6 60 10 172 12 97 1 184 2 192 2 8 1 18 6 22 12 6 8 8 8 8 0 0
-14 48 -15 57 -1 4 6 0 8 -10 4 -10 -3 -17 -3 -17 1 0 9 -49 13 -187 15 -50 1
-90 4 -88 7 2 3 -16 5 -38 6 -23 0 -98 4 -167 9 -69 4 -133 8 -143 7 -11 0
-15 4 -10 11 4 7 0 6 -10 -2 -9 -7 -17 -9 -17 -4 0 5 -20 8 -45 7 -28 -1 -45
2 -45 10 0 6 -5 4 -10 -4 -8 -12 -10 -12 -10 -1 0 8 -7 11 -19 8 -14 -3 -18
-1 -14 10 5 13 3 13 -17 3 -18 -9 -21 -9 -15 0 5 8 3 11 -6 8 -8 -3 -29 2 -48
9 -18 8 -35 12 -38 9 -3 -3 -18 1 -34 9 -20 11 -30 12 -35 3 -4 -6 -3 -8 4 -4
6 3 17 0 25 -8 8 -8 17 -12 21 -9 3 4 6 2 6 -4 0 -6 14 -9 33 -7 22 3 27 1 18
-5 -11 -7 -9 -10 10 -14 23 -4 22 -4 -3 -6 -16 0 -28 3 -28 8 0 6 -19 8 -42 6
-82 -8 -107 -5 -100 14 4 10 1 12 -9 5 -20 -12 -69 -12 -69 1 0 5 -4 4 -9 -4
-6 -9 -11 -10 -15 -2 -7 10 6 16 28 12 4 -1 14 6 20 14 10 14 16 15 39 4 15
-7 27 -17 27 -22 0 -6 3 -7 7 -3 4 4 -3 16 -17 27 l-25 19 29 -10 c16 -6 31
-8 34 -5 3 3 1 5 -5 5 -6 0 -9 8 -6 18 3 11 -1 19 -9 19 -7 0 -26 4 -43 8 -16
4 -45 6 -63 5 -25 0 -32 3 -26 12 37 60 105 99 239 138 67 20 91 31 94 45 3
17 -2 18 -60 12 -161 -16 -177 -17 -99 -3 70 12 73 14 41 21 l-34 8 23 17 c20
15 22 23 19 93 -3 41 -8 79 -12 83 -4 4 -74 0 -155 -9 -257 -30 -405 -17 -602
50 -165 56 -264 110 -424 232 -151 115 -444 413 -498 506 -4 6 7 10 25 11 44
1 201 27 207 34 3 3 19 5 35 5 17 0 39 6 50 13 11 6 29 12 41 12 12 0 24 4 26
9 3 8 47 20 86 23 6 1 12 5 12 10 0 4 9 8 20 8 12 0 35 7 51 16 24 12 34 13
45 4 17 -15 451 -5 501 11 21 7 44 7 70 0 39 -10 341 -14 890 -12 262 2 315 4
327 17 8 8 13 21 9 29 -3 9 0 22 7 30 6 8 9 19 5 25 -3 5 -3 10 2 10 4 0 17
20 27 44 11 25 23 43 27 41 9 -6 44 34 36 41 -3 4 7 20 23 36 17 16 30 37 30
45 0 9 3 14 6 10 3 -3 19 6 34 20 33 29 76 53 96 53 8 0 14 5 14 10 0 6 5 10
11 10 5 0 8 -3 6 -7 -6 -10 58 -8 96 2 15 4 27 3 27 -1 0 -5 43 -9 95 -9 52 0
95 -3 95 -7 0 -4 11 -3 25 2 19 7 25 7 24 -3 -4 -29 2 -68 9 -63 4 2 6 -40 4
-94 l-4 -99 91 6 c74 4 95 2 116 -11 14 -9 25 -21 25 -26 0 -24 -328 -159
-350 -145 -6 4 -24 -3 -40 -15 -26 -18 -31 -19 -36 -6 -4 11 -14 13 -35 9 -16
-3 -29 -2 -29 3 0 5 -27 7 -59 6 -56 -4 -60 -2 -82 27 -13 17 -30 31 -38 31
-10 0 -12 -3 -6 -8 6 -4 11 -34 12 -67 1 -33 2 -64 2 -69 1 -4 12 -6 26 -3 14
2 23 2 21 -1 -13 -13 18 -40 59 -52 59 -16 356 -4 504 20 63 11 120 38 104 49
-12 8 -37 69 -38 93 -1 10 -11 26 -22 35 -17 14 -19 21 -11 39 8 17 25 25 82
35 52 10 72 19 74 31 2 13 -6 19 -35 24 -83 14 -107 50 -118 170 -7 83 -3 95
31 100 7 1 44 9 82 18 39 9 84 16 100 16 16 0 32 3 36 7 4 4 21 8 39 9 18 1
75 4 127 7 146 10 313 20 330 19 25 -1 100 29 100 39 0 6 5 7 12 3 6 -4 8 -3
4 4 -4 7 -17 8 -36 2 -16 -4 -62 -6 -102 -4 -40 2 -138 6 -218 8 -91 2 -167
10 -205 20 -51 14 -75 15 -163 5 -57 -6 -106 -9 -109 -6 -3 3 0 48 6 99 6 51
11 102 11 113 1 11 6 22 11 26 6 3 17 39 25 79 7 40 15 74 17 76 1 2 142 11
312 21 208 12 447 18 725 18 330 0 385 1 270 8 -225 13 -856 -2 -1228 -28
l-83 -6 7 28 c13 60 15 64 37 61 19 -3 23 3 28 47 8 62 -6 223 -27 311 -8 37
-13 69 -10 72 13 13 763 14 1601 3 1914 -25 2564 -37 2574 -46 2 -2 0 -12 -4
-22 -5 -10 -7 -22 -6 -28 2 -5 4 -15 5 -22 1 -7 5 -16 9 -19 4 -4 7 20 7 54
l0 61 -32 5 c-18 3 -265 8 -548 11 -283 3 -688 8 -900 10 -366 6 -2434 25
-2626 25 l-90 0 -17 48 c-21 58 -21 86 -1 120 21 37 5 77 -37 94 l-31 13 21
27 c27 33 26 36 -4 48 -17 6 -27 20 -32 41 -4 22 -8 27 -14 17 -6 -9 -9 -5 -9
12 0 20 -2 22 -10 10 -8 -12 -10 -11 -10 7 0 12 4 25 10 28 6 3 10 16 10 28 1
22 1 22 15 3 14 -19 15 -18 15 17 0 34 2 37 30 37 25 0 30 4 30 24 0 13 10 30
22 38 19 13 21 18 10 31 -10 12 -11 21 -2 37 6 11 7 26 3 33 -4 6 -8 32 -8 57
0 43 -2 46 -45 68 -54 27 -94 28 -119 3 -11 -11 -23 -16 -27 -13 -4 4 -5 0 -1
-9 3 -9 -3 -23 -14 -33 -11 -9 -17 -21 -14 -26 3 -6 1 -10 -6 -10 -9 0 -9 -3
0 -14 9 -11 8 -15 -5 -20 -9 -3 -21 -3 -27 0 -7 3 -4 -1 5 -9 17 -13 17 -15
-7 -33 -17 -13 -21 -20 -12 -26 9 -6 9 -10 -2 -17 -10 -7 -11 -13 -2 -30 10
-17 9 -24 -2 -36 -8 -8 -17 -11 -21 -8 -3 4 -6 -3 -6 -15 0 -21 4 -23 40 -26
11 -1 15 -12 14 -39 -1 -35 0 -36 13 -17 15 21 43 27 43 10 0 -6 -17 -37 -37
-68 -21 -31 -41 -64 -45 -72 -4 -9 -7 -1 -7 20 -1 31 -3 33 -16 19 -20 -20
-26 -140 -7 -147 10 -3 10 -7 1 -18 -9 -11 -8 -14 1 -14 8 0 10 -3 7 -7 -4 -3
-15 1 -26 11 -18 16 -19 15 -25 -32 -3 -26 -9 -115 -12 -197 -3 -83 -9 -174
-13 -202 -5 -30 -4 -53 1 -53 5 0 8 -18 6 -40 -1 -22 -4 -37 -7 -34 -3 3 -6
10 -6 15 0 5 -4 9 -10 10 -5 0 -18 8 -28 16 -32 30 -17 1 34 -63 47 -59 52
-70 56 -127 3 -38 -3 -109 -16 -185 -12 -68 -21 -151 -21 -184 0 -58 -1 -60
-22 -54 -13 3 -61 6 -108 7 -61 1 -76 4 -55 9 23 6 12 8 -42 9 -42 1 -73 -3
-75 -10 -2 -7 -13 -7 -33 1 -19 8 -62 10 -121 6 -65 -4 -95 -2 -106 7 -9 6
-96 172 -194 367 -97 195 -182 358 -188 363 -8 5 -7 10 3 16 15 10 7 31 -12
31 -22 0 -96 165 -107 238 -21 149 -8 308 26 295 8 -3 11 -10 7 -16 -3 -6 -1
-7 6 -3 6 4 9 11 6 16 -3 5 -1 11 4 14 5 4 12 2 16 -4 3 -5 11 -10 17 -10 6 0
5 7 -3 17 -10 12 -11 15 -1 9 7 -4 20 -2 29 6 9 7 14 8 10 2 -4 -7 2 -14 13
-17 11 -3 18 -2 16 2 -3 4 3 13 14 21 10 7 16 20 13 29 -4 13 -3 13 5 3 13
-19 52 5 45 27 -4 13 -3 14 5 2 6 -8 8 -20 5 -28 -3 -7 -1 -13 3 -13 10 0 54
65 54 79 0 4 15 7 33 5 17 -1 26 0 19 3 -10 4 -10 8 -1 20 10 12 10 16 -2 24
-11 7 -10 9 6 10 l20 0 -20 9 c-19 8 -19 9 1 9 21 1 44 31 24 31 -6 0 -10 9
-10 20 0 13 5 18 15 14 17 -7 21 11 4 21 -6 4 -16 -1 -23 -11 -8 -10 -20 -15
-30 -11 -22 9 -20 30 3 24 16 -4 18 -1 12 22 -12 47 -7 66 17 69 12 2 22 -1
22 -6 0 -17 -13 -22 -28 -9 -13 10 -14 9 -7 -3 5 -8 8 -22 7 -32 -2 -9 2 -20
9 -24 7 -4 10 -2 7 7 -7 17 10 51 21 44 5 -2 15 3 22 12 10 12 10 15 1 9 -7
-4 -15 -1 -18 9 -4 9 -15 20 -25 24 -18 6 -18 7 1 19 11 7 20 9 19 5 -4 -22 3
-33 19 -32 10 0 12 3 5 6 -7 2 -13 12 -13 21 0 15 2 15 10 2 5 -8 10 -10 10
-5 0 6 5 3 10 -5 8 -13 10 -12 10 3 0 12 4 16 13 11 6 -4 9 -4 5 1 -4 4 -3 14
4 22 9 11 8 13 -2 11 -7 -2 -15 3 -17 10 -4 9 2 11 20 7 14 -4 28 -2 31 4 4 7
-1 11 -13 11 -23 0 -28 15 -8 23 9 4 9 6 -1 6 -7 1 -15 -5 -18 -13 -3 -8 -13
-12 -25 -9 -24 7 -24 20 1 35 11 7 20 19 20 26 0 9 6 12 18 7 14 -5 15 -4 5 6
-15 15 -17 33 -4 25 5 -4 12 0 14 6 4 8 6 7 6 -4 1 -9 6 -20 13 -24 7 -5 9 -2
5 9 -7 18 16 30 31 15 6 -6 12 -6 16 1 4 6 4 11 1 11 -4 0 3 12 15 27 20 26
21 28 3 41 -17 13 -17 14 3 8 14 -4 24 -2 27 8 4 9 14 12 26 9 14 -4 21 -1 21
10 0 20 27 29 34 11 3 -8 11 -14 18 -13 10 0 10 2 0 6 -6 2 -12 11 -12 18 0 7
-7 16 -16 19 -8 3 -12 2 -9 -4 4 -6 -7 -10 -24 -10 -17 0 -31 4 -31 9 0 5 9 7
20 4 14 -4 20 0 20 11 0 12 7 15 25 12 13 -3 27 -1 30 4 8 13 -36 23 -48 11
-14 -14 -30 -15 -22 -1 10 16 -31 -3 -58 -27 -20 -17 -27 -19 -31 -7 -3 8 -13
14 -22 14 -12 0 -4 14 27 44 24 24 47 42 52 39 4 -2 7 0 7 5 0 16 157 77 255
100 50 12 140 33 200 48 61 14 119 28 130 30 11 2 34 7 50 13 22 7 25 9 9 10
-26 1 -111 -14 -254 -45 -177 -39 -220 -52 -306 -87 -43 -18 -82 -34 -87 -35
-4 -1 -27 -10 -50 -20 -44 -20 -78 -56 -139 -152 -19 -30 -60 -94 -91 -142
-32 -48 -57 -90 -57 -92 0 -2 -24 -40 -52 -84 -29 -44 -71 -110 -93 -146 -22
-36 -68 -110 -102 -163 -83 -129 -90 -162 -75 -345 11 -130 15 -148 49 -220
20 -44 44 -85 53 -91 9 -7 17 -23 17 -37 2 -16 -1 -20 -6 -12 -12 19 -24 17
-33 -7 -10 -29 -42 -28 -35 1 4 14 -2 31 -19 50 -13 16 -24 36 -24 43 0 8 -13
23 -30 35 -20 14 -30 30 -30 46 0 14 -3 23 -7 21 -5 -3 -10 79 -11 181 -5 235
-7 226 119 429 20 32 94 153 164 268 251 412 270 442 301 470 28 26 229 127
259 131 6 0 24 6 40 13 17 7 51 15 77 17 48 4 68 8 228 42 105 22 167 29 380
37 80 4 285 15 455 26 171 11 366 22 435 25 69 2 153 9 188 15 34 5 66 8 70 6
4 -3 50 -1 102 4 52 4 151 11 220 14 120 6 546 39 640 51 25 3 79 7 120 9 155
9 367 27 410 35 25 5 124 14 220 20 96 7 191 15 210 19 19 4 66 9 105 10 38 1
77 7 86 12 11 6 20 5 24 -1 3 -5 15 -10 26 -10 18 0 24 -20 22 -77 -1 -7 9
-13 22 -13 12 0 28 -7 35 -15 7 -9 19 -14 26 -11 7 3 15 -2 18 -10 3 -9 10
-12 16 -9 6 3 7 -1 4 -10 -5 -13 -9 -13 -23 -3 -11 8 -10 5 3 -10 19 -22 32
-30 22 -13 -3 5 4 11 15 14 15 4 19 2 15 -8 -2 -7 2 -19 10 -26 8 -7 13 -18
10 -26 -3 -8 -1 -11 4 -8 6 3 10 2 10 -3 0 -5 9 -19 20 -32 11 -13 20 -29 20
-35 0 -7 7 -18 15 -25 24 -20 19 8 -10 55 -13 22 -25 43 -25 47 0 3 27 15 60
27 l60 20 38 -48 c21 -26 86 -115 145 -197 59 -82 116 -160 126 -174 l20 -26
-35 4 c-27 3 -34 1 -34 -12 0 -11 -4 -14 -12 -9 -24 15 -51 14 -45 -1 3 -8 0
-20 -8 -26 -12 -10 -10 -16 13 -37 15 -13 20 -22 12 -18 -8 4 -4 -3 9 -14 13
-12 19 -21 15 -21 -5 0 2 -9 15 -19 18 -14 31 -17 48 -10 19 7 27 2 56 -34 45
-56 49 -64 36 -73 -7 -4 -9 -3 -6 2 3 5 -3 20 -12 33 -10 13 -21 20 -24 14 -5
-8 40 -75 78 -114 8 -9 15 -21 15 -26 0 -6 14 -23 31 -37 17 -14 27 -26 23
-26 -4 0 3 -9 16 -20 13 -11 30 -18 39 -16 9 3 54 7 101 10 l85 5 -82 -11
c-128 -16 -103 -31 37 -23 80 5 120 4 120 -3 0 -13 -28 -19 -127 -28 -80 -6
-82 -7 -71 -28 7 -11 11 -24 10 -29 -1 -4 1 -6 5 -6 19 3 27 -2 15 -10 -11 -7
-8 -20 14 -67 16 -33 27 -62 26 -66 -1 -5 2 -8 8 -8 5 0 10 -8 10 -18 0 -10 3
-22 8 -26 4 -4 7 -11 8 -14 6 -37 18 -72 24 -72 5 0 7 -8 5 -17 -1 -10 1 -23
6 -29 13 -16 18 -58 8 -70 -6 -7 -2 -21 11 -36 10 -14 16 -28 13 -32 -12 -12
-32 -6 -36 12 -3 9 -4 -41 -4 -113 1 -78 2 -99 4 -52 3 66 6 78 20 75 16 -3
25 -25 24 -60 0 -10 5 -18 10 -18 6 0 7 -5 4 -10 -4 -6 -8 -50 -11 -98 -9
-192 -12 -206 -48 -290 -20 -46 -36 -86 -36 -88 0 -2 13 -4 30 -4 53 0 70 31
70 127 l0 83 60 0 c75 0 79 -7 55 -109 -38 -165 -81 -240 -297 -518 -85 -109
-218 -282 -296 -384 l-141 -186 -111 26 c-76 18 -110 30 -110 40 0 7 48 75
107 150 59 75 136 174 172 221 279 365 353 464 359 478 3 9 16 32 28 50 13 18
25 47 29 65 12 58 34 97 53 91 16 -5 16 -5 -1 6 -9 6 -17 16 -17 22 0 7 4 7
14 -1 11 -9 15 -5 19 21 3 18 1 37 -4 43 -6 5 -9 4 -10 -3 -3 -26 -4 -31 -12
-38 -4 -4 -7 1 -8 12 -1 29 -20 -24 -21 -58 -1 -34 -18 -26 -18 8 0 32 -22 85
-43 102 -8 7 -48 16 -89 19 -69 5 -72 4 -51 -11 12 -9 29 -40 38 -68 17 -58
21 -218 5 -218 -6 0 -10 33 -10 80 0 86 -15 138 -52 177 -25 26 -43 29 -363
48 l-240 15 -32 -38 c-23 -27 -32 -32 -33 -19 0 28 -39 20 -71 -14 -29 -32
-37 -45 -19 -34 5 3 10 1 10 -5 0 -6 -12 -15 -26 -20 -17 -7 -24 -15 -20 -25
3 -8 1 -15 -4 -15 -6 0 -10 5 -10 11 0 5 -5 7 -10 4 -6 -4 -7 -12 -3 -18 4 -7
1 -7 -9 1 -15 12 -40 12 -88 1 -17 -4 -40 -31 -35 -40 2 -3 -2 -6 -10 -6 -9 0
-6 10 11 32 13 18 24 37 24 42 0 6 6 16 14 22 8 6 16 21 19 32 4 16 2 19 -10
15 -10 -4 -13 -2 -10 8 3 8 0 20 -8 26 -11 9 -17 6 -30 -14 -10 -14 -15 -32
-12 -40 4 -9 0 -13 -11 -12 -9 2 -17 9 -17 17 0 8 -6 37 -13 66 -11 42 -19 53
-42 61 -40 15 -44 8 -23 -45 10 -28 9 -73 -2 -73 -5 0 -3 -4 5 -10 12 -8 12
-10 -2 -15 -10 -4 -14 -13 -11 -21 4 -11 9 -12 16 -5 6 6 18 11 25 11 10 0 5
-9 -13 -26 -26 -24 -27 -26 -9 -45 9 -10 14 -22 11 -26 -4 -3 -2 -12 4 -20 17
-19 3 -16 -48 13 -39 21 -48 23 -60 11 -12 -11 -10 -18 9 -42 12 -16 17 -25 9
-21 -10 7 -12 3 -7 -15 3 -13 3 -18 0 -11 -3 6 -10 9 -15 6 -6 -3 -15 -1 -22
5 -7 5 -25 12 -41 15 -15 3 -39 12 -52 21 -14 9 -29 13 -35 10 -5 -4 -17 -1
-25 6 -22 18 -203 13 -222 -6 -3 -3 0 -5 6 -5 21 0 13 -28 -10 -34 -25 -6 -16
-22 17 -28 21 -3 27 -25 13 -45 -6 -7 -3 -15 9 -21 31 -18 -28 -25 -145 -19
-58 3 -99 2 -92 -3 8 -4 87 -11 175 -15 88 -4 177 -10 197 -14 l38 -6 -31 -47
c-21 -33 -29 -53 -24 -68 4 -12 12 -19 19 -17 7 3 13 -1 13 -9 0 -7 -5 -10
-11 -7 -6 4 -2 -4 9 -18 11 -13 20 -25 21 -27 1 -2 4 8 6 22 3 14 1 23 -3 20
-5 -3 -6 2 -3 10 3 9 11 13 18 10 6 -3 3 1 -6 9 -22 17 -23 27 -4 27 8 0 13 8
12 17 0 10 8 19 18 21 11 2 26 10 34 18 15 16 82 19 82 4 0 -5 -16 -12 -35
-16 -19 -3 -32 -10 -30 -15 3 -4 11 -6 18 -4 15 6 89 -36 95 -53 3 -11 1 -11
-18 0 -19 11 -23 11 -36 -7 -8 -11 -16 -18 -17 -16 -7 13 -50 -16 -86 -59 -50
-59 -52 -69 -8 -36 44 34 107 55 132 46 17 -7 9 -13 -45 -38 -36 -16 -76 -32
-90 -36 -25 -6 -100 -103 -100 -128 1 -7 10 4 20 24 11 20 35 48 53 62 30 23
40 25 98 21 65 -5 112 -11 162 -21 16 -4 33 -17 42 -34 l14 -28 -39 -6 -40 -6
0 -263 c-1 -214 -3 -266 -15 -281 -8 -11 -15 -15 -15 -9 0 7 -10 9 -27 4 l-28
-8 0 -111 c0 -62 3 -112 8 -112 4 0 7 -7 7 -15 0 -8 6 -15 14 -15 8 0 16 -6
19 -12 3 -10 7 -10 20 0 9 8 21 11 27 7 5 -3 10 -2 10 3 0 5 6 9 13 10 6 0 29
4 50 8 31 5 41 3 57 -14 10 -11 16 -22 13 -25 -3 -4 6 -9 21 -13 14 -3 43 -15
63 -25 21 -10 45 -19 55 -19 10 0 18 -4 18 -10 0 -5 7 -10 15 -10 8 0 15 5 15
10 0 11 9 24 42 60 9 10 14 21 11 24 -10 10 11 7 27 -4 8 -5 11 -10 5 -10 -7
0 -7 -3 0 -8 10 -7 75 -132 75 -145 0 -13 35 -42 50 -42 8 1 17 -2 20 -6 10
-12 60 -20 60 -9 0 6 5 8 10 5 6 -4 9 -1 8 7 -2 7 4 11 12 9 8 -2 20 -4 27 -4
7 0 10 -4 7 -9 -3 -4 2 -8 11 -8 10 0 13 -5 9 -12 -4 -7 -4 -10 1 -6 4 4 16 3
26 -2 17 -9 18 -6 14 42 l-4 53 9 -45 c16 -81 14 -90 -19 -90 -17 0 -33 -5
-37 -11 -9 -14 16 -30 39 -25 9 2 17 0 17 -6 0 -6 -19 -8 -45 -6 l-45 3 0 -95
c-1 -68 -5 -101 -15 -114 -18 -23 -18 -38 -4 -89 6 -24 19 -42 34 -49 20 -9
22 -13 10 -25 -39 -39 25 -59 235 -73 147 -10 404 0 434 17 17 9 15 11 -15 22
-30 11 -272 40 -337 41 -22 0 -22 1 -7 30 19 37 19 76 0 130 -22 62 -19 77 13
83 16 3 108 9 204 13 149 6 188 4 254 -11 143 -31 184 -45 282 -95 53 -28 98
-50 99 -50 8 0 2 520 -6 524 -16 10 -19 56 -4 56 11 0 13 53 12 320 -1 258 -4
320 -15 320 -16 0 -31 -26 -38 -63 -2 -14 -9 -34 -14 -43 -6 -11 -5 -29 1 -51
l11 -35 11 38 12 39 1 -59 c1 -53 0 -57 -13 -40 -13 18 -14 18 -15 1 0 -16 -8
-17 -67 -13 -38 3 -74 5 -80 6 -19 0 -15 49 7 95 11 22 19 50 20 62 0 12 6 24
13 26 7 4 6 6 -4 6 -9 1 -20 8 -23 17 -3 8 -11 12 -17 8 -8 -5 -9 -3 -4 5 10
16 -33 61 -51 54 -8 -3 -14 -2 -13 3 1 5 -3 22 -10 38 -6 16 -9 36 -6 44 4 11
2 12 -7 5 -17 -14 -68 -14 -68 0 0 6 8 20 18 31 17 21 17 21 -6 2 -28 -24 -29
-56 -2 -56 24 0 27 -37 5 -66 -18 -24 -34 -6 -28 34 l3 27 -11 -25 c-6 -14
-15 -35 -20 -47 -12 -31 -35 -29 -44 4 -5 21 -2 32 14 44 30 25 26 40 -11 39
-18 -1 -47 1 -64 4 -25 4 -36 -1 -53 -20 -29 -33 -26 -39 8 -13 38 28 66 14
92 -47 23 -52 20 -60 -51 -139 -27 -30 -70 -86 -95 -125 -46 -69 -48 -70 -90
-70 -41 0 -43 1 -50 36 -6 33 -3 41 28 73 28 28 143 241 131 241 -1 0 -12 -16
-25 -36 -16 -27 -24 -32 -30 -22 -6 9 -9 8 -9 -8 0 -33 -72 -142 -112 -169
-21 -14 -49 -45 -64 -70 -24 -41 -29 -45 -67 -46 -29 -2 -34 -3 -15 -6 14 -2
29 -10 31 -17 6 -16 -25 -17 -35 -2 -5 8 -8 7 -8 -1 0 -7 -7 -13 -15 -13 -8 0
-15 -4 -15 -10 0 -5 -7 -10 -16 -10 -8 0 -12 5 -9 10 10 16 -7 12 -27 -7 -11
-9 -24 -18 -31 -19 -7 -1 -30 -5 -52 -8 l-40 -6 37 12 c20 7 47 26 59 41 18
24 27 28 51 23 21 -4 28 -2 25 7 -2 6 -10 11 -16 9 -6 -1 -11 1 -11 4 0 6 197
264 426 559 77 99 155 201 173 228 56 82 100 188 124 297 22 99 24 105 47 104
14 -1 69 -4 123 -8 l97 -6 0 861 0 862 -52 -7 c-29 -4 -84 -9 -123 -11 -55 -4
-63 -3 -40 5 16 5 61 12 100 15 102 9 115 13 115 35 0 17 -7 20 -46 20 -25 0
-43 4 -40 8 3 5 -22 36 -54 70 -39 40 -60 70 -60 85 0 13 -8 32 -18 43 -10 11
-17 25 -14 33 2 7 -2 18 -9 23 -12 8 -12 9 1 6 8 -3 50 -59 95 -125 74 -113
82 -121 113 -122 l32 -1 0 217 c-1 134 -5 224 -12 237 -27 53 -73 117 -76 106
-4 -11 -82 86 -82 102 0 11 -40 10 -76 -2 -16 -5 -48 -14 -72 -20 l-42 -11 59
-77 c57 -75 101 -141 101 -152 0 -3 -13 -6 -30 -6 -16 -1 -28 1 -26 5 7 13
-138 221 -155 221 -6 0 6 -20 27 -45 20 -25 33 -45 30 -45 -7 0 5 -16 41 -55
23 -24 23 -24 2 -30 -11 -4 -22 -5 -23 -3 -28 35 -87 132 -91 151 -5 18 -11
23 -26 20 -20 -5 -20 -6 -2 -27 24 -27 87 -125 96 -148 10 -28 -11 -21 -30 10
-10 15 -35 50 -55 77 -21 28 -38 56 -38 63 0 12 -32 17 -43 6 -5 -5 64 -98 85
-114 20 -15 56 -80 47 -86 -14 -8 -41 16 -35 32 3 7 0 16 -6 20 -7 4 -8 3 -4
-4 4 -7 5 -12 2 -12 -3 0 -13 16 -22 35 -9 19 -21 32 -27 28 -6 -4 -7 -1 -2 6
4 8 -4 23 -24 41 -17 16 -31 33 -31 39 0 5 -8 7 -19 4 -12 -3 -17 -11 -14 -24
3 -10 10 -17 15 -16 15 3 51 -49 43 -62 -10 -17 -38 8 -31 26 3 8 2 12 -3 9
-5 -3 -19 10 -32 28 -20 29 -28 34 -54 30 l-30 -5 28 13 27 13 -31 30 c-27 25
-31 26 -25 8 5 -17 1 -21 -25 -27 -35 -7 -35 -28 2 -36 18 -5 11 -9 -34 -19
-32 -7 -61 -11 -63 -8 -3 3 13 8 35 12 38 6 39 7 23 24 -9 10 -24 21 -32 24
-12 4 -11 6 3 6 10 1 15 6 12 11 -4 7 -12 7 -25 0 -10 -5 -30 -10 -44 -10 -30
0 -32 -7 -9 -32 9 -10 13 -21 10 -25 -10 -9 -48 28 -40 40 4 6 -9 8 -38 4 -24
-3 -64 -8 -89 -11 l-45 -6 45 11 c120 28 122 29 105 46 -15 14 -23 14 -86 1
-61 -14 -69 -14 -69 -1 0 9 6 13 15 9 8 -3 15 -1 15 5 0 6 5 7 11 3 10 -6 8
10 -8 52 -2 6 5 11 17 10 11 0 20 -5 19 -11 0 -5 -5 -9 -10 -7 -12 3 -11 -15
1 -23 6 -4 8 -11 5 -16 -4 -5 2 -6 11 -2 14 5 15 8 3 12 -7 2 17 15 56 27 45
15 74 19 81 13 8 -6 11 -2 10 13 -1 25 -36 39 -36 15 0 -10 -9 -13 -31 -11
-18 2 -28 0 -24 -6 3 -6 1 -10 -5 -10 -7 0 -14 9 -17 20 -3 11 -8 18 -12 15
-4 -2 -18 -6 -32 -9 -83 -19 -93 -22 -81 -29 6 -5 16 -6 21 -2 5 3 12 1 16 -5
3 -5 -2 -10 -12 -10 -15 0 -16 -2 -3 -10 12 -8 11 -10 -7 -10 -16 0 -21 4 -17
15 4 8 -1 17 -10 21 -24 9 -19 24 8 24 18 0 23 4 19 18 -3 14 8 20 64 34 l68
16 -75 -4 -75 -3 -28 37 -28 37 23 6 c21 6 21 7 2 8 -11 1 -25 6 -32 13 -8 8
-12 8 -12 1 0 -16 -31 -25 -45 -13 -10 8 -15 6 -20 -11 -7 -22 -8 -22 -21 -4
-8 10 -14 22 -14 25 0 11 138 32 151 24 7 -4 9 -3 6 3 -8 12 76 36 242 68 69
14 146 29 171 35 25 6 59 12 77 14 18 3 37 7 42 10 5 3 44 8 87 11 44 4 111
13 149 21 39 8 83 17 98 21 21 4 25 8 15 15 -9 6 -6 7 9 3 12 -3 39 -2 60 4
21 6 55 13 76 16 21 3 37 12 37 19 0 10 -35 14 -152 18 -138 5 -156 4 -180
-13 -22 -16 -44 -19 -150 -18 l-123 2 83 7 c75 7 125 20 74 20 -11 0 -22 5
-24 12 -3 8 -26 12 -64 12 -55 0 -56 1 -25 10 23 7 99 4 245 -7 277 -23 319
-22 314 1 -3 15 -14 17 -83 15 -44 -1 -107 -1 -140 0 -33 0 -126 1 -207 1 -80
1 -145 4 -143 7 2 3 -10 3 -28 1 -28 -4 -29 -6 -12 -13 12 -5 -13 -7 -63 -7
-53 1 -78 5 -70 11 8 5 1 7 -21 3 -18 -3 -43 -6 -55 -6 -17 0 -18 -2 -6 -10
12 -7 10 -9 -8 -7 -29 2 -28 15 1 22 12 2 60 13 107 24 59 13 114 18 180 16
266 -8 460 -16 503 -21 l47 -6 0 65 c0 66 -7 100 -19 93 -3 -2 -40 -6 -81 -10
l-75 -5 60 18 c33 11 72 22 87 25 l27 6 1 599 0 599 -467 -255 c-257 -140
-480 -262 -494 -270 -25 -15 -29 -15 -72 10 -49 29 -107 90 -107 112 0 25 56
61 520 330 140 82 337 198 438 258 l182 110 0 233 0 234 -875 0 -875 0 0 -21
c0 -46 -44 -190 -85 -276 -64 -135 -136 -234 -261 -358 -285 -283 -707 -501
-1294 -669 -451 -128 -949 -208 -1620 -258 -266 -20 -1098 -17 -1360 5 -1261
105 -2196 373 -2740 785 -94 72 -263 238 -320 317 -53 72 -170 265 -170 280 0
6 28 17 63 23 56 11 63 11 75 -5 147 -207 255 -321 419 -442 475 -352 1314
-618 2303 -730 382 -44 527 -53 940 -58 422 -6 689 3 1025 33 1473 131 2544
594 2879 1244 24 47 47 95 51 108 l6 22 -346 0 -347 0 -101 -82 c-116 -93
-322 -230 -423 -281 -233 -117 -610 -254 -888 -322 -378 -92 -627 -130 -1146
-176 -196 -17 -849 -23 -1060 -10 -942 59 -1792 278 -2365 608 -89 52 -305
203 -305 214 0 4 32 15 70 24 39 9 70 19 70 21 0 2 -351 4 -780 4 l-780 0 0
-574z m7454 319 c-4 -8 -9 -13 -13 -11 -3 2 -12 -3 -20 -11 -12 -13 -11 -14
10 -8 13 4 30 14 37 23 11 14 12 14 12 -1 0 -9 5 -17 11 -17 5 0 7 -6 4 -12
-4 -7 1 -4 10 7 17 20 17 20 10 -4 -4 -14 -3 -21 2 -18 6 4 19 0 29 -8 10 -7
29 -11 41 -8 18 4 22 1 18 -16 -2 -13 3 -22 16 -26 13 -5 19 -16 20 -38 0 -29
1 -30 9 -9 10 24 20 29 20 11 0 -37 -194 -186 -371 -284 -365 -203 -990 -389
-1549 -460 -69 -8 -141 -18 -160 -20 -50 -7 -221 -24 -310 -30 -41 -4 -93 -8
-115 -11 -22 -3 -201 -8 -397 -11 -283 -4 -358 -3 -358 7 0 9 -3 10 -13 1 -8
-6 -36 -9 -68 -6 -91 8 -181 15 -237 18 -30 2 -57 9 -61 16 -6 10 -12 9 -24
-3 -11 -11 -18 -13 -22 -5 -4 6 -16 8 -27 6 -14 -4 -18 -2 -14 9 4 10 2 13 -7
7 -6 -4 -33 -8 -59 -8 -43 0 -48 2 -48 23 0 16 -6 22 -21 22 -18 0 -19 -2 -9
-15 14 -16 10 -18 -14 -9 -9 3 -16 14 -16 23 0 14 -2 14 -10 1 -8 -12 -10 -10
-10 10 0 14 -4 21 -8 15 -14 -20 -67 -2 -55 18 3 5 -4 4 -16 -2 -24 -13 -25
-17 -9 -27 7 -4 8 -3 4 4 -4 7 -3 12 3 12 6 0 15 -8 20 -19 9 -16 7 -17 -14
-13 -14 2 -25 7 -26 11 -6 48 -17 62 -30 39 -11 -20 -40 -13 -32 8 3 8 15 14
27 15 20 0 20 1 1 9 -28 12 -37 12 -30 0 3 -5 -1 -10 -10 -10 -9 0 -13 5 -10
10 3 6 -3 10 -14 10 -26 0 -27 -9 -3 -26 9 -7 12 -14 5 -14 -6 0 -15 5 -18 10
-3 6 -17 10 -30 10 -18 0 -23 4 -19 15 4 10 10 12 18 6 8 -7 12 -1 13 21 0 18
-2 25 -7 18 -11 -17 -31 -3 -23 16 5 14 3 14 -15 3 -11 -7 -19 -16 -16 -20 2
-4 0 -10 -6 -14 -5 -3 -10 3 -10 14 0 12 5 21 10 21 6 0 10 4 10 8 0 5 -7 9
-15 9 -8 0 -15 -6 -15 -12 0 -6 -7 -12 -15 -12 -19 0 -19 4 4 33 12 15 21 20
23 12 3 -8 7 -6 11 6 4 9 3 15 -2 12 -12 -8 -33 19 -23 29 4 5 1 5 -6 1 -7 -4
-10 -11 -7 -15 2 -5 -4 -16 -15 -26 -19 -17 -20 -17 -20 -1 0 10 -7 24 -15 32
-13 14 -15 13 -13 -7 2 -15 -3 -24 -15 -27 -11 -2 -16 2 -15 10 2 8 -4 12 -16
10 -18 -3 -18 -2 -5 14 11 13 11 18 1 21 -6 3 -9 10 -6 15 4 6 2 8 -4 4 -6 -3
-16 0 -24 7 -7 8 -19 12 -27 9 -9 -3 -11 0 -6 9 6 11 5 12 -6 2 -15 -15 -53
-18 -44 -4 6 11 -33 26 -42 17 -4 -3 -2 -6 4 -6 5 0 10 -7 10 -16 0 -15 -2
-14 -13 1 -8 10 -11 21 -9 25 3 4 -2 13 -10 20 -13 11 -15 8 -16 -16 -1 -19
-3 -22 -6 -11 -3 10 -2 31 2 45 6 24 8 25 17 9 6 -12 13 -15 21 -9 12 10 42 9
99 -3 18 -5 47 -9 63 -11 17 -1 91 -12 165 -23 373 -59 631 -76 1115 -75 817
1 1445 89 2045 286 304 100 549 207 715 312 98 62 120 70 109 41z m-4367 -504
c8 -4 8 -11 -3 -25 -14 -19 -14 -19 -14 2 0 14 -6 22 -17 22 -10 0 -25 5 -33
10 -16 11 45 3 67 -9z m153 -125 c0 -11 -19 -15 -25 -6 -3 5 1 10 9 10 9 0 16
-2 16 -4z m205 -166 c3 -5 1 -10 -4 -10 -6 0 -11 5 -11 10 0 6 2 10 4 10 3 0
8 -4 11 -10z m295 -84 c0 -11 -19 -15 -25 -6 -3 5 1 10 9 10 9 0 16 -2 16 -4z
m5410 -127 c69 -52 67 -49 43 -49 -22 0 -84 44 -102 73 -18 27 0 20 59 -24z
m-233 -176 c19 -25 32 -47 30 -49 -7 -7 -84 82 -102 117 l-17 34 27 -29 c16
-15 43 -48 62 -73z m-208 -70 l44 -76 -22 -18 c-12 -10 -131 -79 -264 -154
-495 -280 -462 -260 -459 -285 4 -21 89 -143 140 -200 12 -14 22 -28 22 -32 0
-3 6 -13 13 -20 7 -7 45 -56 84 -109 71 -96 108 -163 97 -180 -3 -5 0 -9 5 -9
6 0 11 -7 11 -15 0 -8 5 -15 10 -15 6 0 10 -9 10 -19 0 -11 5 -21 12 -23 7 -3
9 -12 4 -23 -6 -16 -9 -17 -16 -5 -7 12 -28 18 -65 21 -5 0 -113 -13 -240 -29
-126 -17 -340 -43 -474 -58 -235 -26 -247 -27 -305 -11 -53 14 -62 14 -69 1
-5 -8 -13 -11 -19 -8 -7 5 -9 1 -5 -9 8 -21 -12 -34 -24 -16 -7 12 -9 11 -9
-1 0 -13 -2 -13 -11 0 -9 12 -10 12 -5 -4 4 -10 4 -34 0 -52 -5 -29 -10 -33
-28 -28 -25 6 -52 -18 -41 -36 3 -5 1 -10 -5 -10 -7 0 -9 -7 -6 -16 5 -14 4
-15 -8 -5 -20 17 -257 375 -357 539 -24 40 -55 90 -69 112 -52 82 -110 180
-110 184 0 6 59 15 155 21 50 4 108 11 130 16 22 4 61 9 87 9 26 0 49 4 53 9
3 5 21 7 41 4 32 -5 50 0 106 28 24 12 37 11 18 -1 -11 -7 -6 -10 20 -11 40
-1 82 1 125 8 17 2 54 5 83 6 28 1 52 6 52 11 0 4 19 6 43 4 23 -3 130 3 237
13 192 18 195 18 212 -2 15 -18 16 -15 15 59 -2 90 2 98 85 138 51 25 174 99
483 288 77 47 147 86 155 86 8 0 35 -35 59 -77z m-6665 -359 c121 -42 352
-120 511 -174 160 -54 310 -107 335 -118 53 -22 246 -220 268 -274 12 -29 15
-30 24 -14 9 17 11 16 35 -6 33 -30 68 -85 197 -313 60 -104 119 -209 133
-233 13 -23 28 -40 33 -37 5 3 15 -1 23 -10 9 -9 37 -15 71 -16 52 -2 56 -4
56 -26 0 -21 -4 -23 -59 -23 -57 0 -59 -1 -65 -31 -3 -16 -37 -93 -76 -169
-38 -77 -70 -151 -70 -166 0 -46 -335 -675 -372 -698 -32 -19 -29 1 11 85 45
96 42 115 -18 105 -25 -4 -44 0 -69 16 -28 17 -49 21 -105 20 -38 0 -71 -3
-74 -5 -2 -3 -1 -63 4 -133 4 -71 9 -119 11 -106 2 12 8 20 13 17 5 -3 6 1 3
9 -3 9 -1 16 6 16 6 0 9 4 6 9 -5 8 30 25 47 22 4 -1 10 5 13 13 6 15 109 44
120 33 3 -3 -14 -43 -38 -89 -25 -46 -60 -122 -79 -171 -18 -48 -38 -85 -44
-83 -5 2 -9 11 -9 20 1 9 -2 16 -7 16 -4 0 -6 13 -4 29 2 19 -2 31 -11 35 -8
3 -14 10 -14 16 0 6 5 8 10 5 6 -3 10 1 10 9 0 8 -4 18 -10 21 -5 3 -10 16
-10 27 0 12 -2 19 -5 16 -3 -3 -8 -154 -11 -337 -3 -182 -10 -344 -14 -359
-10 -34 -11 11 -11 606 l1 463 -22 8 c-13 5 -43 7 -68 5 -30 -2 -40 0 -30 6
12 8 10 10 -7 10 -16 0 -21 4 -17 15 4 8 1 15 -5 15 -6 0 -10 -5 -9 -11 2 -6
-3 -14 -10 -16 -7 -3 -11 1 -10 8 2 7 -5 15 -14 17 -15 3 -18 -4 -18 -37 0
-23 -4 -41 -10 -41 -11 0 -13 81 -4 118 4 12 11 22 16 22 5 0 6 -5 2 -11 -4
-7 7 -3 25 7 26 15 33 16 40 6 5 -8 12 -14 17 -15 5 -1 8 -6 6 -10 -1 -5 2 -5
8 -2 6 4 9 13 6 21 -6 17 8 18 35 3 11 -5 17 -14 14 -20 -4 -5 1 -9 9 -9 21 0
30 19 12 26 -9 3 -13 10 -10 16 3 5 12 7 20 4 7 -3 16 -1 19 4 4 6 1 10 -5 10
-6 0 -4 11 6 25 10 16 14 36 11 54 -3 16 -2 44 3 62 5 19 11 59 13 89 6 63 56
250 80 297 9 17 41 105 72 196 31 92 75 221 99 287 62 171 44 158 -77 -60 -16
-28 -32 -44 -42 -43 -12 1 -14 -2 -7 -9 8 -8 7 -19 -4 -39 -15 -29 -36 -40
-31 -16 1 6 -3 11 -10 10 -7 -2 -10 4 -7 12 5 11 2 13 -10 9 -13 -5 -15 -2 -8
16 8 21 27 29 27 11 0 -5 3 -12 7 -16 3 -4 5 1 4 10 -1 10 -10 23 -19 30 -21
15 -22 25 -3 25 8 0 17 -7 20 -16 3 -8 11 -12 17 -8 8 5 8 9 -1 14 -7 4 -10
15 -7 25 4 9 3 13 -2 10 -5 -3 -12 -1 -15 4 -3 5 -16 7 -29 5 -20 -4 -20 -4
-2 4 11 5 26 7 34 4 11 -4 13 -1 8 13 -4 9 -2 24 4 31 6 8 8 14 4 14 -4 0 -15
-10 -26 -22 -16 -20 -18 -20 -19 -5 0 9 5 17 12 17 6 0 8 3 5 7 -4 3 -2 11 3
18 6 8 5 18 -5 31 -13 16 -16 17 -25 4 -8 -12 -10 -11 -10 9 0 16 4 21 15 18
8 -4 17 -2 20 3 4 6 -1 10 -9 10 -19 0 -21 21 -3 39 10 11 9 12 -3 5 -26 -15
-40 -13 -50 7 -11 19 -10 20 13 23 7 1 11 13 9 29 -2 22 0 26 15 20 14 -5 13
-2 -4 14 -13 12 -19 23 -13 29 5 5 10 23 12 39 3 29 0 31 -62 52 -68 23 -67
23 -75 23 -3 0 -22 7 -43 16 -29 13 -877 301 -944 321 -10 3 -18 11 -18 18 0
26 62 135 77 135 9 0 115 -34 237 -76z m7736 16 c0 -5 -2 -10 -4 -10 -3 0 -8
5 -11 10 -3 6 -1 10 4 10 6 0 11 -4 11 -10z m-2037 -65 c4 -8 3 -16 -1 -19
-10 -6 -105 -20 -118 -18 -6 1 -46 -4 -88 -13 -43 -8 -81 -14 -84 -14 -4 1 -9
0 -12 -1 -3 -1 -39 -3 -80 -5 -179 -6 -190 -8 -190 -24 0 -10 -3 -12 -8 -6 -6
9 -66 13 -74 5 -5 -3 -88 -10 -168 -14 -41 -1 -97 -6 -125 -9 -27 -4 -88 -9
-135 -12 -47 -3 -107 -8 -135 -10 -27 -2 -126 -9 -220 -15 -93 -6 -183 -14
-200 -17 -16 -2 -43 -5 -60 -5 -16 0 -33 -5 -37 -12 -6 -8 -10 -7 -17 3 -5 8
-14 10 -22 5 -7 -4 -34 -9 -59 -11 -25 -2 -88 -5 -140 -9 -52 -3 -97 -7 -99
-10 -12 -12 16 -17 76 -14 38 1 115 3 173 4 58 2 175 6 260 10 l155 7 231
-348 c206 -309 323 -488 349 -533 5 -8 9 -42 10 -76 l1 -62 -96 -11 c-52 -6
-138 -13 -190 -16 -52 -3 -131 -8 -175 -10 -44 -3 -177 -10 -295 -15 -118 -6
-253 -12 -300 -15 -257 -15 -568 -29 -657 -30 -46 0 -83 -4 -83 -9 0 -4 -11
-6 -25 -4 -14 3 -28 1 -31 -3 -3 -5 -15 -9 -27 -9 -12 0 -75 -13 -139 -29
-157 -39 -257 -54 -331 -47 -34 3 -98 6 -142 7 -80 1 -106 10 -144 48 -15 15
-36 17 -134 17 -64 -1 -117 2 -117 6 0 3 -22 9 -49 13 -37 5 -53 13 -70 35
-11 16 -21 38 -21 49 0 26 -22 37 -92 45 -53 7 -58 10 -58 32 0 20 5 24 28 23
15 -1 45 3 67 7 48 11 305 11 357 1 45 -9 60 -32 68 -102 3 -36 10 -51 22 -53
15 -3 15 2 2 59 -19 81 -53 155 -245 541 -87 174 -168 323 -179 331 -12 8 -18
17 -13 20 4 3 55 8 113 12 58 4 114 9 125 11 11 2 114 7 230 10 115 4 217 10
225 14 8 4 44 7 80 5 36 -1 128 2 205 7 229 15 306 19 386 21 46 1 81 7 88 15
14 15 16 14 -204 13 -88 -1 -236 -6 -330 -12 -271 -18 -240 -16 -710 -34 -66
-2 -192 -7 -280 -10 -136 -5 -163 -4 -180 9 -15 12 -17 18 -8 24 7 4 151 14
320 20 517 21 1535 76 2163 117 365 24 1462 117 1510 129 8 2 45 4 81 5 50 1
68 -3 72 -14z m2017 1 c0 -2 -7 -7 -16 -10 -8 -3 -12 -2 -9 4 6 10 25 14 25 6z
m-630 -55 c0 -9 -119 -75 -126 -69 -7 8 39 50 70 64 36 15 56 17 56 5z m-7616
-26 c10 -10 13 -26 9 -49 -3 -23 0 -42 11 -57 26 -38 20 -42 -51 -34 -79 8
-102 22 -54 31 36 7 61 48 61 99 0 29 3 30 24 10z m8243 -31 c-3 -3 -12 -4
-19 -1 -8 3 -5 6 6 6 11 1 17 -2 13 -5z m-309 -191 c-32 -2 -84 -2 -115 0 -32
2 -6 3 57 3 63 0 89 -1 58 -3z m-185 -10 c-7 -2 -19 -2 -25 0 -7 3 -2 5 12 5
14 0 19 -2 13 -5z m335 0 c-15 -2 -42 -2 -60 0 -18 2 -6 4 27 4 33 0 48 -2 33
-4z m-371 -19 c-3 -3 -12 -4 -19 -1 -8 3 -5 6 6 6 11 1 17 -2 13 -5z m796 -31
c-7 -2 -19 -2 -25 0 -7 3 -2 5 12 5 14 0 19 -2 13 -5z m-885 -10 c-21 -2 -57
-2 -80 0 -24 2 -7 4 37 4 44 0 63 -2 43 -4z m835 0 c-7 -2 -19 -2 -25 0 -7 3
-2 5 12 5 14 0 19 -2 13 -5z m-585 -10 c-26 -2 -71 -2 -100 0 -29 2 -8 3 47 3
55 0 79 -1 53 -3z m422 -3 c14 -4 -11 -5 -55 -2 -44 2 -82 6 -84 8 -8 7 114 2
139 -6z m113 3 c-7 -2 -21 -2 -30 0 -10 3 -4 5 12 5 17 0 24 -2 18 -5z m-315
-10 c-15 -2 -42 -2 -60 0 -18 2 -6 4 27 4 33 0 48 -2 33 -4z m259 1 c-3 -3
-12 -4 -19 -1 -8 3 -5 6 6 6 11 1 17 -2 13 -5z m-8722 -134 c3 -5 1 -10 -4
-10 -6 0 -11 5 -11 10 0 6 2 10 4 10 3 0 8 -4 11 -10z m1706 -183 c-10 -9 -11
-8 -5 6 3 10 9 15 12 12 3 -3 0 -11 -7 -18z m24 -65 c-6 -8 -32 11 -32 23 0
12 4 11 17 -3 10 -9 16 -18 15 -20z m6439 23 c4 -13 2 -14 -14 -5 -23 13 -26
20 -6 20 8 0 16 -7 20 -15z m-861 -75 c3 -11 1 -18 -4 -14 -5 3 -9 12 -9 20 0
20 7 17 13 -6z m-5579 -56 c5 -14 4 -15 -9 -4 -17 14 -19 20 -6 20 5 0 12 -7
15 -16z m6586 -17 c0 -5 -4 -5 -10 -2 -5 3 -10 14 -10 23 0 15 2 15 10 2 5 -8
10 -19 10 -23z m-23 -33 c-3 -3 -12 -4 -19 -1 -8 3 -5 6 6 6 11 1 17 -2 13 -5z
m737 -10 c5 -13 2 -15 -13 -11 -11 3 -22 1 -25 -4 -2 -5 -3 -4 -1 3 1 7 8 12
14 11 6 -2 11 2 11 7 0 15 7 12 14 -6z m-777 0 c-3 -3 -12 -4 -19 -1 -8 3 -5
6 6 6 11 1 17 -2 13 -5z m-70 -16 c-22 -6 -42 -7 -47 -2 -5 5 12 10 38 10 l47
2 -38 -10z m-2197 -60 c0 -21 -3 -29 -10 -22 -5 5 -7 19 -4 32 9 31 14 27 14
-10z m2620 21 c0 -5 5 -7 11 -3 7 4 7 -1 -1 -16 -11 -20 -14 -21 -27 -7 -9 8
-12 20 -9 26 9 14 26 14 26 0z m39 -58 c21 -28 21 -29 1 -24 -25 7 -44 29 -35
43 9 15 11 13 34 -19z m-1199 9 c8 -5 11 -10 5 -10 -5 0 -17 5 -25 10 -8 5
-10 10 -5 10 6 0 17 -5 25 -10z m1370 -16 c0 -20 -30 -30 -41 -13 -6 9 -3 18
8 26 18 14 33 8 33 -13z m-205 -22 c-6 -7 -45 19 -45 29 0 5 11 2 24 -8 13
-10 23 -19 21 -21z m-1136 4 c7 -8 8 -17 3 -19 -4 -3 -13 3 -20 14 -14 22 0
26 17 5z m1126 -35 c3 -5 0 -13 -6 -17 -7 -4 -9 -3 -5 4 3 5 0 13 -6 15 -9 4
-10 6 -1 6 6 1 14 -3 18 -8z m-1015 -100 c-1 -10 -6 -7 -15 9 -19 33 -18 50 0
26 8 -11 15 -27 15 -35z m1477 -33 c-3 -7 -5 -2 -5 12 0 14 2 19 5 13 2 -7 2
-19 0 -25z m-1337 -78 c0 -5 -2 -10 -4 -10 -3 0 -8 5 -11 10 -3 6 -1 10 4 10
6 0 11 -4 11 -10z m-5130 -57 c0 -35 -221 -393 -248 -401 -10 -3 -10 2 0 25
21 46 199 356 216 376 19 22 32 22 32 0z m6383 -110 c-7 -2 -19 -2 -25 0 -7 3
-2 5 12 5 14 0 19 -2 13 -5z m-10063 -68 c0 -5 -5 -3 -10 5 -5 8 -10 20 -10
25 0 6 5 3 10 -5 5 -8 10 -19 10 -25z m170 -55 c23 -7 22 -8 -10 -8 -19 0 -55
3 -80 7 l-45 8 55 1 c30 0 66 -4 80 -8z m2468 -12 c-3 -15 -18 -28 -32 -28 -5
0 -1 9 9 20 21 23 26 25 23 8z m1747 -168 c3 -5 1 -10 -4 -10 -6 0 -11 5 -11
10 0 6 2 10 4 10 3 0 8 -4 11 -10z m0 -31 c4 -6 13 -8 21 -5 12 4 12 2 4 -14
-6 -11 -13 -20 -16 -20 -3 0 -3 4 1 9 3 5 -5 17 -17 25 -12 9 -17 16 -11 16 7
0 15 -5 18 -11z m-4125 -23 c0 -6 -9 -22 -20 -36 l-20 -25 0 27 c0 14 3 33 6
42 6 16 34 11 34 -8z m2040 -6 c0 -6 -24 -10 -52 -9 -30 0 -45 3 -36 7 29 11
88 13 88 2z m35 0 c3 -5 1 -10 -4 -10 -6 0 -11 5 -11 10 0 6 2 10 4 10 3 0 8
-4 11 -10z m2013 -25 c-3 -3 -9 2 -12 12 -6 14 -5 15 5 6 7 -7 10 -15 7 -18z
m-4184 2 c16 -12 18 -52 23 -532 3 -356 1 -529 -6 -547 -12 -32 -45 -38 -60
-10 -11 21 -19 1072 -8 1090 10 16 29 15 51 -1z m4157 -19 c-10 -11 -11 -9 -5
6 6 15 4 17 -6 11 -9 -6 -11 -4 -5 4 5 9 10 10 18 2 8 -8 7 -14 -2 -23z m90
-1 c-5 -5 -17 -5 -28 2 -16 9 -15 10 9 9 16 -2 24 -6 19 -11z m-2161 -7 c0 -5
-7 -10 -15 -10 -8 0 -15 -6 -15 -12 0 -9 -3 -9 -9 1 -5 8 -18 12 -30 8 -13 -3
-21 0 -21 7 0 8 18 13 45 15 26 1 45 -2 45 -9z m2065 -20 c3 -5 1 -10 -4 -10
-6 0 -11 5 -11 10 0 6 2 10 4 10 3 0 8 -4 11 -10z m55 0 c0 -5 -2 -10 -4 -10
-3 0 -8 5 -11 10 -3 6 -1 10 4 10 6 0 11 -4 11 -10z m-1727 -41 c-4 -12 -11
-18 -20 -15 -8 3 -17 6 -19 6 -2 0 -4 7 -4 15 0 9 9 15 24 15 19 0 23 -4 19
-21z m-387 -18 c15 -23 16 -24 1 -13 -9 8 -20 12 -24 9 -4 -2 -15 4 -24 13
-15 16 -15 18 7 18 14 0 30 -11 40 -27z m2030 -1 c0 -13 -5 -19 -14 -15 -7 3
-16 5 -18 5 -2 0 -4 5 -4 11 0 5 4 8 9 4 5 -3 12 -1 16 5 9 14 11 13 11 -10z
m-1754 -157 c-4 -229 -9 -237 -11 -15 0 100 2 182 7 182 4 0 6 -75 4 -167z
m-842 -385 l0 -447 -22 -7 c-22 -7 -48 16 -48 43 0 23 -18 14 -37 -17 -26 -45
-37 -37 -30 22 6 49 22 72 52 73 6 0 12 149 15 415 3 228 7 416 8 417 1 1 10
9 19 18 16 16 17 14 30 -26 10 -33 13 -153 13 -491z m2543 475 c-7 -3 -9 -12
-6 -21 3 -9 3 -14 -1 -11 -4 4 -8 16 -11 27 -3 16 0 19 13 15 9 -4 11 -8 5
-10z m31 -25 c-3 -4 4 -8 15 -8 11 0 23 -4 26 -10 10 -16 -35 -12 -51 4 -18
18 -18 23 1 23 8 0 12 -4 9 -9z m-2160 -70 c21 -34 30 -56 22 -48 -21 16 -20
6 0 -26 9 -13 14 -27 11 -30 -3 -3 -18 17 -32 46 -15 29 -21 49 -14 45 7 -5
10 -3 8 4 -3 7 -9 12 -14 12 -10 0 -34 36 -35 52 -1 22 22 0 54 -55z m2102 47
c-3 -21 -26 -44 -26 -26 0 7 -4 10 -9 6 -5 -3 -13 0 -17 6 -4 7 -3 9 3 6 6 -4
19 0 29 8 24 18 23 18 20 0z m-1176 -10 c0 -12 -14 -15 -69 -15 -73 0 -106 16
-49 23 80 10 118 7 118 -8z m-856 -151 c5 -14 4 -15 -9 -4 -17 14 -19 20 -6
20 5 0 12 -7 15 -16z m1554 -61 c-27 -108 -133 -395 -170 -463 l-19 -35 7 40
c16 100 128 428 174 515 23 43 27 16 8 -57z m-1563 28 c8 -16 22 -37 32 -47
11 -10 12 -15 4 -13 -13 5 -68 89 -57 89 3 0 12 -13 21 -29z m40 -11 c10 -11
16 -20 13 -20 -3 0 -13 9 -23 20 -10 11 -16 20 -13 20 3 0 13 -9 23 -20z m432
4 c-3 -3 -12 -4 -19 -1 -8 3 -5 6 6 6 11 1 17 -2 13 -5z m1568 -14 c3 -5 1
-10 -4 -10 -6 0 -11 5 -11 10 0 6 2 10 4 10 3 0 8 -4 11 -10z m-1678 -102 c-2
-13 -4 -5 -4 17 -1 22 1 32 4 23 2 -10 2 -28 0 -40z m1648 34 c-3 -3 -11 0
-18 7 -9 10 -8 11 6 5 10 -3 15 -9 12 -12z m-45 -2 c0 -5 -2 -10 -4 -10 -3 0
-8 5 -11 10 -3 6 -1 10 4 10 6 0 11 -4 11 -10z m-1907 -7 c-7 -2 -19 -2 -25 0
-7 3 -2 5 12 5 14 0 19 -2 13 -5z m1957 -13 c0 -5 -7 -10 -16 -10 -8 0 -12 5
-9 10 3 6 10 10 16 10 5 0 9 -4 9 -10z m-1770 -31 c0 -5 -11 -7 -25 -3 -22 6
-25 3 -24 -22 0 -24 2 -26 8 -9 7 16 9 14 15 -15 8 -34 8 -34 16 -10 7 21 8
21 9 5 0 -11 -13 -63 -29 -115 -35 -110 -33 -100 -17 -100 12 -1 67 -45 67
-55 0 -3 -7 -5 -15 -5 -19 0 -21 -60 -3 -78 9 -9 8 -12 -6 -12 -11 0 -15 -5
-10 -12 6 -10 4 -10 -7 0 -8 7 -45 13 -94 14 -53 1 -64 3 -32 5 47 4 52 8 41
37 -5 13 -14 15 -39 10 -37 -7 -50 5 -41 40 11 43 58 41 69 -2 2 -9 3 -5 2 11
-1 15 2 27 6 27 4 0 5 9 2 20 -4 16 -8 18 -19 9 -9 -8 -14 -8 -14 -1 0 6 5 14
11 18 8 4 7 9 -2 15 -11 7 -11 9 2 9 9 0 20 7 23 16 5 12 2 15 -10 10 -8 -3
-20 -6 -25 -6 -5 0 -9 -17 -9 -37 0 -27 -3 -34 -9 -23 -6 8 -7 18 -4 23 3 5 0
8 -8 5 -8 -2 -15 -17 -17 -33 -3 -20 -6 -25 -12 -15 -5 8 -4 22 1 33 8 15 7
18 -7 15 -9 -2 -19 3 -22 11 -3 9 0 12 10 9 8 -4 15 0 15 8 0 7 -5 10 -11 7
-6 -4 -2 3 8 15 11 12 14 22 9 22 -15 0 -55 -64 -43 -68 6 -2 8 -8 5 -12 -3
-5 -13 -6 -22 -3 -13 5 -15 1 -9 -23 4 -17 3 -24 -2 -16 -7 10 -11 10 -21 -2
-7 -8 -9 -21 -5 -27 4 -8 3 -9 -5 -5 -8 5 -16 -3 -24 -23 -6 -17 -15 -31 -19
-31 -11 0 19 55 77 145 24 39 56 92 71 120 36 66 66 106 86 114 24 9 108 1
108 -10z m-204 -28 c-20 -37 -153 -231 -173 -251 -8 -8 17 33 56 91 39 59 71
112 71 118 0 7 5 9 10 6 9 -5 14 8 8 19 -3 4 33 46 39 46 2 0 -3 -13 -11 -29z
m321 -73 c-2 -13 -4 -3 -4 22 0 25 2 35 4 23 2 -13 2 -33 0 -45z m-127 -122
c-5 -5 -13 -6 -17 -1 -5 4 -3 10 3 12 7 2 10 14 8 26 -4 20 -3 20 6 -2 7 -17
7 -28 0 -35z m-1959 -27 c15 -17 32 -28 37 -25 5 3 17 -3 27 -14 10 -11 28
-20 40 -20 25 0 72 -76 52 -83 -7 -2 -2 -9 11 -16 22 -12 31 -41 11 -41 -6 0
-8 -8 -4 -19 3 -12 0 -23 -8 -28 -8 -4 -19 -18 -26 -30 -16 -30 -33 -29 -48 4
-18 37 -16 47 9 58 37 17 32 33 -14 46 -58 17 -67 25 -80 76 -6 26 -14 40 -18
33 -12 -20 -40 18 -40 56 0 42 15 43 51 3z m2106 -331 c-27 -17 -31 108 -10
272 6 45 9 25 14 -105 5 -117 4 -162 -4 -167z m140 242 c2 -2 8 2 13 10 8 13
10 12 10 -3 0 -9 5 -26 12 -36 8 -14 8 -32 0 -76 -12 -60 -37 -91 -59 -74 -15
13 -25 -3 -19 -35 3 -15 -1 -27 -10 -30 -11 -4 -14 8 -15 62 -1 37 -3 99 -5
137 -5 72 2 122 14 110 4 -3 9 -48 13 -98 l6 -92 1 87 c2 107 12 140 25 83 5
-22 12 -42 14 -45z m813 -52 c-23 -68 -56 -148 -72 -178 -16 -30 -26 -46 -22
-35 59 180 124 348 132 341 2 -3 -15 -60 -38 -128z m-60 88 c0 -13 -39 -18
-217 -29 -13 -1 -23 -5 -23 -10 0 -4 -6 -7 -12 -6 -31 4 -41 -3 -19 -12 14 -6
27 -6 30 -1 3 5 15 6 26 1 19 -7 18 -8 -4 -8 -20 -1 -21 -3 -11 -16 7 -8 9
-15 6 -15 -4 0 -14 7 -22 15 -9 8 -26 15 -40 15 -13 0 -23 3 -21 8 1 4 -2 7
-8 7 -5 0 -9 -3 -8 -7 2 -4 -6 -6 -17 -5 -10 1 -16 5 -14 9 3 4 -16 8 -43 7
-36 0 -43 -3 -28 -9 19 -8 19 -9 -2 -9 -13 -1 -23 4 -23 10 0 6 -7 9 -15 6 -8
-4 -17 -2 -20 3 -4 6 -31 10 -61 10 -52 0 -71 11 -39 24 8 3 129 8 268 12 138
4 254 8 256 10 12 11 61 3 61 -10z m-1446 -36 c-15 -22 -29 -40 -31 -40 -5 0
3 15 29 53 30 43 31 32 2 -13z m3033 -32 c-3 -7 -5 -2 -5 12 0 14 2 19 5 13 2
-7 2 -19 0 -25z m-2092 11 c-4 -6 -13 -8 -20 -5 -7 2 -16 1 -21 -3 -5 -5 -23
-13 -40 -19 -28 -9 -31 -8 -27 8 5 20 25 26 81 29 21 1 31 -3 27 -10z m6804
-46 c10 -19 9 -23 -4 -23 -10 0 -15 9 -15 27 0 29 2 29 19 -4z m-7795 -8 c-9
-14 -18 -25 -21 -25 -5 0 5 18 20 38 17 22 18 13 1 -13z m3091 4 c-5 -16 -4
-19 6 -14 9 6 11 3 6 -9 -4 -10 -7 -25 -7 -34 -1 -15 -2 -15 -9 -2 -7 13 -8
38 -2 73 0 4 4 7 7 7 3 0 2 -10 -1 -21z m-1906 -19 c21 -17 27 -28 17 -26 -17
2 -74 56 -59 56 4 -1 23 -14 42 -30z m1858 8 c-3 -8 -6 -5 -6 6 -1 11 2 17 5
13 3 -3 4 -12 1 -19z m-2992 2 c-3 -5 -12 -10 -18 -10 -7 0 -6 4 3 10 19 12
23 12 15 0z m-96 -70 c-22 -41 -33 -53 -22 -22 8 20 34 62 39 62 2 0 -6 -18
-17 -40z m521 25 c0 -2 -7 -5 -15 -9 -9 -3 -15 0 -15 9 0 9 6 12 15 9 8 -4 15
-7 15 -9z m437 -22 c1 -22 -1 -24 -8 -10 -6 9 -7 22 -4 27 9 14 10 13 12 -17z
m2150 10 c10 -28 26 -33 40 -15 13 15 13 14 4 -5 -8 -16 -8 -23 2 -26 6 -3 -2
-5 -19 -4 -17 0 -36 -3 -42 -7 -7 -4 -11 7 -10 34 0 41 14 53 25 23z m-4945
-95 c9 -37 13 -70 10 -73 -3 -3 -18 -5 -35 -5 -28 0 -29 1 -23 38 3 20 8 62
12 92 8 63 13 55 36 -52z m2225 80 c-3 -8 -6 -5 -6 6 -1 11 2 17 5 13 3 -3 4
-12 1 -19z m-294 -23 c-3 -9 -8 -14 -10 -11 -3 3 -2 9 2 15 9 16 15 13 8 -4z
m1144 8 c-4 -3 1 -12 11 -19 14 -11 12 -12 -18 -4 -19 6 -36 10 -37 10 -2 0
-3 5 -3 10 0 6 12 10 27 10 14 0 23 -3 20 -7z m88 -3 c3 -6 -1 -7 -9 -4 -18 7
-21 14 -7 14 6 0 13 -4 16 -10z m-1688 -32 c-3 -8 -6 -5 -6 6 -1 11 2 17 5 13
3 -3 4 -12 1 -19z m810 0 c-3 -8 -6 -5 -6 6 -1 11 2 17 5 13 3 -3 4 -12 1 -19z
m863 2 c0 -5 -4 -10 -10 -10 -5 0 -10 5 -10 10 0 6 5 10 10 10 6 0 10 -4 10
-10z m1880 -11 c0 -5 -7 -9 -15 -9 -15 0 -20 12 -9 23 8 8 24 -1 24 -14z m-95
-9 c3 -5 1 -10 -4 -10 -6 0 -11 5 -11 10 0 6 2 10 4 10 3 0 8 -4 11 -10z
m-2295 -23 c10 -4 8 -6 -7 -6 -16 -1 -23 5 -23 17 0 10 3 13 8 6 4 -6 14 -14
22 -17z m2343 -4 c-7 -2 -19 -2 -25 0 -7 3 -2 5 12 5 14 0 19 -2 13 -5z m-43
-7 c0 -2 -7 -6 -15 -10 -8 -3 -15 -1 -15 4 0 6 7 10 15 10 8 0 15 -2 15 -4z
m-20 -41 c-10 -12 -8 -16 11 -24 23 -10 24 -10 2 -10 -12 -1 -24 3 -27 8 -8
12 4 41 16 41 6 0 5 -6 -2 -15z m-2626 -144 c6 -77 4 -96 -11 -121 -16 -27
-29 -35 -50 -27 -5 1 -7 8 -7 15 2 14 -82 17 -131 4 -17 -4 -52 -5 -80 -1 -60
7 -57 9 15 13 30 2 69 6 85 10 28 6 30 10 32 56 0 28 -3 47 -8 44 -15 -9 -10
13 6 26 9 7 22 9 32 5 10 -5 24 -7 32 -6 7 1 10 -2 6 -8 -3 -7 0 -8 9 -5 11 4
16 -6 21 -43 16 -114 33 -113 33 2 0 49 -3 83 -9 80 -5 -4 -9 -1 -9 4 0 6 6
11 13 11 8 0 9 3 1 8 -6 4 -14 19 -18 35 -6 27 -6 27 13 8 15 -15 21 -39 25
-110z m-58 103 c-2 -6 1 -17 7 -23 9 -9 8 -11 -5 -6 -10 4 -18 15 -18 24 -1
14 -2 14 -11 -1 -11 -19 -54 -24 -64 -8 -12 20 7 30 51 28 28 -2 43 -7 40 -14z
m-212 -28 c10 4 16 1 16 -8 0 -9 -9 -14 -22 -14 -25 1 -38 13 -38 36 1 12 3
12 14 -3 8 -10 20 -15 30 -11z m74 -4 c2 -16 -1 -20 -11 -16 -22 8 -29 42 -8
40 9 -2 17 -13 19 -24z m2832 13 c0 -2 -9 -3 -19 -2 -11 0 -18 5 -15 9 4 6 34
0 34 -7z m-2230 -35 c0 -21 7 -65 15 -97 8 -31 15 -81 15 -109 0 -63 32 -172
65 -221 14 -20 25 -39 25 -44 0 -15 -21 -21 -35 -9 -8 7 -15 9 -15 4 -1 -5
-11 23 -24 61 -13 39 -35 97 -49 131 -21 54 -22 62 -9 71 10 6 13 16 9 27 -13
34 -91 -7 -113 -59 -7 -18 -21 -41 -31 -50 -16 -17 -18 -9 -44 131 -39 209
-46 189 63 192 51 2 95 5 97 8 2 2 10 4 18 4 9 0 13 -13 13 -40z m-730 -11 c0
-5 5 -7 10 -4 15 9 12 -4 -4 -21 -27 -26 -59 -7 -36 21 15 17 30 20 30 4z
m1933 -46 c12 -21 34 -63 47 -93 14 -30 29 -58 33 -61 5 -3 8 -8 6 -10 -1 -2
53 -114 120 -249 l123 -245 -21 -84 c-23 -92 -25 -96 -40 -87 -6 4 -9 36 -6
82 l4 76 -109 211 c-98 191 -107 214 -95 231 13 17 11 22 -18 49 -18 17 -35
30 -39 29 -5 -1 -8 3 -8 8 0 21 -2 25 -15 40 -7 8 -23 37 -34 64 -20 46 -21
49 -4 62 26 20 30 18 56 -23z m-1768 -22 c-8 -7 -56 10 -50 18 3 5 16 4 29 -2
14 -7 23 -14 21 -16z m-158 3 c-3 -3 -12 -4 -19 -1 -8 3 -5 6 6 6 11 1 17 -2
13 -5z m290 -36 c-3 -8 -6 -5 -6 6 -1 11 2 17 5 13 3 -3 4 -12 1 -19z m6435
-52 c-4 -62 -5 -65 -35 -76 -18 -6 -49 -19 -70 -30 -36 -18 -39 -12 -10 21 12
14 12 17 -2 23 -23 8 -31 2 -62 -52 -26 -44 -28 -45 -34 -22 -3 14 -3 30 0 35
3 6 4 18 3 27 -3 17 30 34 47 23 5 -3 13 0 17 6 5 8 3 9 -6 4 -9 -6 -11 -4 -6
4 6 9 12 8 26 -4 17 -16 19 -15 30 7 16 30 81 98 95 98 6 0 9 -24 7 -64z
m-5524 37 c-10 -2 -26 -2 -35 0 -10 3 -2 5 17 5 19 0 27 -2 18 -5z m-378 -43
c0 -33 4 -42 23 -49 33 -13 190 -31 265 -31 52 0 62 -3 62 -17 0 -11 3 -14 8
-8 4 6 18 11 32 12 14 1 44 4 67 8 40 7 42 6 67 -31 27 -42 50 -131 61 -236 6
-58 9 -67 30 -72 33 -8 38 -41 9 -55 l-24 -11 -1 -222 c-1 -124 -5 -207 -9
-188 -5 22 -8 28 -10 15 -1 -11 -2 -22 -2 -25 1 -5 -18 -6 -75 -2 -15 1 -21 7
-17 16 4 9 -4 16 -24 21 -18 4 -32 14 -35 27 -7 24 -33 18 -29 -7 2 -10 -1
-14 -7 -10 -6 3 -8 17 -5 31 3 13 2 24 -3 24 -6 0 -11 28 -12 63 -2 67 -7 93
-25 114 -40 50 -46 53 -108 54 -35 1 -73 2 -84 2 -22 1 -22 1 -3 37 19 36 18
93 -2 106 -15 9 -10 22 9 27 13 4 12 5 -4 6 -21 1 -75 53 -87 83 -5 11 -7 11
-15 0 -7 -11 -10 -11 -15 2 -4 9 -1 15 5 13 6 -1 13 4 16 12 3 9 0 11 -8 6 -9
-5 -11 -4 -6 4 4 6 -11 59 -33 116 -42 109 -49 145 -37 183 12 35 26 26 26
-18z m5690 -14 c0 -3 -4 -8 -10 -11 -5 -3 -10 -1 -10 4 0 6 5 11 10 11 6 0 10
-2 10 -4z m-6426 -21 c4 -10 -1 -15 -14 -15 -11 0 -20 7 -20 15 0 8 6 15 14
15 8 0 16 -7 20 -15z m286 5 c-12 -8 -12 -10 -1 -10 8 0 12 -3 8 -6 -9 -9 -28
6 -22 17 4 5 12 9 18 9 7 0 6 -4 -3 -10z m6045 -30 c3 -6 -1 -7 -9 -4 -18 7
-21 14 -7 14 6 0 13 -4 16 -10z m-6585 -29 c5 -11 10 -35 10 -53 -1 -32 -2
-31 -20 17 -23 58 -23 55 -10 55 5 0 14 -9 20 -19z m479 0 c21 -14 1 -19 -92
-27 -75 -6 -87 -4 -87 9 0 16 12 18 120 25 25 1 51 -2 59 -7z m5581 -1 c12 -7
10 -9 -8 -7 -12 0 -22 5 -22 9 0 11 12 10 30 -2z m530 6 c0 -2 -7 -7 -16 -10
-8 -3 -12 -2 -9 4 6 10 25 14 25 6z m-6324 -33 c-3 -8 -6 -17 -6 -19 0 -2 -5
-4 -11 -4 -5 0 -8 4 -5 9 4 5 1 11 -6 13 -6 2 -8 9 -4 16 10 16 38 3 32 -15z
m5894 11 c62 -4 62 -4 55 -21 -5 -15 -4 -16 6 -5 19 18 31 15 24 -8 -4 -11 -2
-20 4 -20 6 0 11 7 11 15 0 12 4 13 25 3 13 -6 22 -15 18 -21 -3 -6 -1 -7 5
-4 15 10 43 -3 35 -16 -3 -6 -1 -7 5 -3 25 15 112 -39 112 -70 0 -12 -5 -11
-26 5 -15 12 -35 21 -45 21 -26 0 -50 11 -44 20 3 5 -5 6 -17 2 -13 -3 -19 -1
-15 5 4 6 1 10 -6 10 -20 -1 -77 24 -77 34 0 5 -8 9 -19 9 -10 0 -24 7 -31 15
-7 8 -17 12 -23 8 -6 -4 -7 -1 -2 7 5 9 2 10 -14 5 -16 -5 -21 -2 -21 12 0 10
4 14 8 8 4 -5 18 -11 32 -11z m730 -29 c0 -31 -3 -35 -37 -44 -21 -6 -59 -17
-85 -25 -27 -8 -48 -12 -48 -9 0 3 19 23 42 45 26 24 47 37 57 33 8 -3 12 -3
8 1 -8 8 29 33 51 34 7 0 12 -13 12 -35z m-310 6 c0 -6 -4 -13 -10 -16 -5 -3
-10 1 -10 9 0 9 5 16 10 16 6 0 10 -4 10 -9z m-6217 -8 c-7 -2 -19 -2 -25 0
-7 3 -2 5 12 5 14 0 19 -2 13 -5z m5808 -39 c9 -8 18 -12 21 -9 3 3 11 -1 18
-10 11 -13 10 -14 -4 -9 -11 4 -16 1 -16 -10 0 -12 -10 -16 -37 -16 -53 0 -83
10 -83 26 0 8 -4 14 -9 14 -4 0 -6 11 -4 24 5 22 7 23 51 13 26 -5 54 -15 63
-23z m689 -78 c0 -2 -7 -7 -16 -10 -8 -3 -12 -2 -9 4 6 10 25 14 25 6z m-607
-12 c3 -4 -1 -13 -9 -22 -17 -16 -42 -2 -30 17 8 12 29 15 39 5z m627 -4 c0
-5 -8 -10 -17 -10 -15 0 -16 2 -3 10 19 12 20 12 20 0z m-6168 -77 c-24 -3
-32 -8 -28 -19 3 -9 -1 -14 -13 -14 -36 0 -68 -37 -76 -86 -9 -66 -14 -74 -41
-74 -18 0 -27 9 -39 36 l-15 37 45 52 c47 56 80 70 160 72 35 0 36 0 7 -4z
m1054 -20 c1 -7 2 -17 3 -23 0 -5 18 -11 39 -11 28 -2 30 -3 11 -6 -15 -2 -39
-18 -53 -34 -15 -16 -31 -27 -35 -24 -14 8 -19 54 -7 58 16 6 2 18 -23 20 -11
1 -21 2 -21 3 0 1 3 10 6 19 8 19 78 17 80 -2z m-1031 -14 c11 -17 0 -20 -21
-4 -17 13 -17 14 -2 15 9 0 20 -5 23 -11z m5705 -50 c21 -17 22 -19 3 -10 -12
6 -46 15 -75 20 l-53 9 50 1 c37 0 57 -5 75 -20z m-4192 -48 c18 -40 24 -81
14 -81 -7 0 -52 100 -52 116 0 14 28 -12 38 -35z m-3689 -37 c28 -4 53 -10 56
-14 2 -4 -30 -1 -73 5 -42 7 -80 11 -84 8 -5 -2 -8 1 -8 8 0 7 10 9 29 6 15
-3 51 -9 80 -13z m2421 -9 c0 -12 -29 -3 -34 10 -4 13 -2 14 14 5 11 -6 20
-13 20 -15z m1008 -53 c3 -65 -11 -85 -22 -31 -10 54 -7 101 7 97 7 -3 13 -28
15 -66z m-1002 23 c4 -10 -57 -58 -63 -51 -2 2 4 17 14 35 17 30 43 38 49 16z
m-466 -35 c0 -5 -2 -10 -4 -10 -3 0 -8 5 -11 10 -3 6 -1 10 4 10 6 0 11 -4 11
-10z m6320 -9 c0 -15 -10 -19 -52 -24 -29 -2 -54 -3 -56 -2 -2 2 1 13 8 24 15
29 100 31 100 2z m-5713 -216 c71 -208 72 -215 40 -215 -22 0 -28 8 -46 63
-21 62 -71 278 -71 304 0 8 5 13 11 11 7 -2 36 -76 66 -163z m6733 91 c0 -3
-4 -8 -10 -11 -5 -3 -10 -1 -10 4 0 6 5 11 10 11 6 0 10 -2 10 -4z m190 -75
c34 -9 35 -46 2 -71 -13 -11 -21 -20 -17 -20 5 0 0 -9 -10 -20 -10 -11 -13
-20 -7 -20 6 0 10 -21 9 -52 l-2 -53 -90 3 c-49 2 -91 5 -93 7 -7 6 37 96 61
124 13 16 29 42 36 58 18 45 55 60 111 44z m-7653 -17 c-3 -3 -12 -4 -19 -1
-8 3 -5 6 6 6 11 1 17 -2 13 -5z m189 -153 c29 -101 30 -111 4 -111 -11 0 -20
7 -20 15 0 8 -4 15 -9 15 -5 0 -8 8 -7 17 2 10 -3 49 -11 88 -7 38 -13 84 -13
100 l1 30 15 -35 c8 -19 26 -73 40 -119z m-259 73 c-3 -3 -12 -4 -19 -1 -8 3
-5 6 6 6 11 1 17 -2 13 -5z m7759 -40 c-6 -16 -26 -10 -26 7 0 6 5 7 10 4 6
-3 10 2 11 12 0 11 3 13 6 5 3 -7 2 -20 -1 -28z m-16 -54 c-7 -4 -9 -16 -6
-28 4 -12 2 -23 -5 -28 -8 -4 -9 -3 -5 4 4 7 3 12 -3 12 -7 0 -6 10 0 30 6 16
15 27 21 24 6 -4 6 -9 -2 -14z m-526 -82 l7 -38 -41 0 c-50 0 -53 18 -9 55 17
14 33 25 34 23 1 -2 5 -20 9 -40z m-402 -193 l31 -40 -36 35 c-34 32 -38 33
-54 18 -15 -15 -15 -16 3 -14 23 4 44 -11 44 -30 0 -9 -11 -14 -30 -14 -19 0
-30 -5 -30 -14 0 -11 -9 -13 -36 -9 -33 5 -39 2 -69 -33 l-32 -38 -7 29 c-3
17 -2 44 2 60 7 26 13 30 49 33 56 4 97 55 95 116 l-1 41 20 -50 c11 -27 34
-68 51 -90z m1 100 c15 -13 27 -32 27 -41 0 -15 -4 -14 -26 7 -29 27 -49 59
-37 59 4 0 20 -12 36 -25z m-6847 -2 c-2 -2 -10 -6 -18 -7 -7 -2 -20 -6 -28
-9 -8 -3 -68 -18 -134 -33 -65 -15 -124 -34 -131 -41 -11 -11 -17 -8 -35 17
l-21 30 30 0 c16 0 42 5 56 10 33 12 157 38 205 42 39 3 83 -2 76 -9z m2968 8
c3 -5 -1 -11 -9 -14 -9 -4 -12 -1 -8 9 6 16 10 17 17 5z m-84 -66 c0 -8 -4
-15 -9 -15 -13 0 -22 16 -14 24 11 11 23 6 23 -9z m-40 -5 c0 -5 -10 -10 -22
-9 -22 0 -22 1 -3 9 11 5 21 9 23 9 1 1 2 -3 2 -9z m-335 -39 c18 -1 18 -2 -3
-17 -20 -13 -24 -14 -37 0 -20 19 -19 25 3 21 9 -2 26 -4 37 -4z m4495 -6 c0
-5 -7 -19 -15 -29 -12 -16 -15 -17 -15 -4 0 9 6 19 13 21 6 3 2 6 -10 6 -12 1
-24 5 -27 10 -3 5 8 8 24 7 17 0 30 -5 30 -11z m-4475 -33 c-3 -3 -11 0 -18 7
-9 10 -8 11 6 5 10 -3 15 -9 12 -12z m4713 -44 c-2 -16 -10 -23 -25 -23 -13 0
-23 3 -23 8 0 4 0 14 0 22 0 9 10 15 26 15 21 0 25 -4 22 -22z m110 -22 c3
-23 0 -28 -13 -22 -9 3 -28 6 -41 6 -20 0 -24 5 -24 28 0 28 2 29 38 23 32 -5
37 -10 40 -35z m92 -13 c0 -22 -3 -24 -32 -18 -40 9 -50 17 -43 36 4 10 16 14
40 11 29 -4 35 -8 35 -29z m-305 17 c-17 -8 -16 -9 10 -11 17 -1 40 -2 52 -2
12 -1 20 -5 17 -9 -3 -4 0 -8 5 -8 21 0 11 -49 -12 -64 -38 -26 -127 -21 -127
6 0 6 -6 6 -15 -2 -8 -7 -15 -18 -15 -26 0 -7 -4 -15 -9 -18 -11 -7 1 51 17
81 14 26 62 62 82 62 10 0 8 -3 -5 -9z m388 -10 c11 0 17 -8 17 -24 0 -23 -3
-24 -37 -19 -41 7 -54 18 -46 40 4 9 14 12 27 9 11 -3 29 -6 39 -6z m139 -27
c86 -17 88 -17 88 -45 0 -24 -3 -27 -17 -20 -10 5 -47 15 -83 21 -93 17 -100
20 -100 42 0 23 1 23 112 2z m206 -38 c1 -1 0 -9 -3 -17 -4 -9 -22 -15 -50
-17 -43 -2 -45 0 -45 25 0 26 1 26 48 19 26 -4 48 -8 50 -10z m80 -17 c14 -14
16 -48 3 -48 -18 0 -66 21 -73 33 -4 6 -4 15 -2 19 8 12 59 9 72 -4z m-1051
-130 c-3 -7 -5 -2 -5 12 0 14 2 19 5 13 2 -7 2 -19 0 -25z m65 -99 c3 -42 1
-56 -8 -52 -10 4 -13 56 -5 107 3 23 9 -4 13 -55z m-187 32 c3 -5 1 -12 -5
-16 -5 -3 -10 1 -10 9 0 18 6 21 15 7z m274 -87 c4 3 13 1 21 -5 13 -7 12 -9
-2 -9 -33 0 -46 11 -40 33 l7 22 3 -23 c2 -12 7 -20 11 -18z m-6569 -534 c8
-5 11 -10 5 -10 -5 0 -17 5 -25 10 -8 5 -10 10 -5 10 6 0 17 -5 25 -10z m87
-26 c-3 -3 -12 -4 -19 -1 -8 3 -5 6 6 6 11 1 17 -2 13 -5z m46 -11 c-7 -2 -19
-2 -25 0 -7 3 -2 5 12 5 14 0 19 -2 13 -5z m50 -10 c-7 -2 -19 -2 -25 0 -7 3
-2 5 12 5 14 0 19 -2 13 -5z m585 0 c-10 -2 -28 -2 -40 0 -13 2 -5 4 17 4 22
1 32 -1 23 -4z m-510 -10 c-10 -2 -26 -2 -35 0 -10 3 -2 5 17 5 19 0 27 -2 18
-5z m415 0 c-13 -2 -35 -2 -50 0 -16 2 -5 4 22 4 28 0 40 -2 28 -4z m-170 -10
c-40 -2 -106 -2 -145 0 -40 1 -8 3 72 3 80 0 112 -2 73 -3z m312 -193 c3 -5 1
-10 -4 -10 -6 0 -11 5 -11 10 0 6 2 10 4 10 3 0 8 -4 11 -10z m-105 -22 c0 -5
-7 -8 -15 -8 -8 0 -15 -7 -15 -15 0 -8 -7 -15 -15 -15 -17 0 -20 16 -5 25 6 4
8 10 5 15 -3 4 6 7 20 6 14 0 25 -4 25 -8z m6083 -75 c-7 -2 -19 -2 -25 0 -7
3 -2 5 12 5 14 0 19 -2 13 -5z m-9203 -78 c-7 -9 -15 -13 -19 -10 -3 3 1 10 9
15 21 14 24 12 10 -5z m3814 -4 c3 -4 -6 -6 -19 -3 -14 2 -25 6 -25 8 0 8 39
4 44 -5z m-760 -54 c11 -10 10 -15 -2 -27 -14 -13 -15 -12 -10 2 4 8 1 21 -5
27 -6 6 -8 11 -3 11 4 0 13 -6 20 -13z m60 -42 c3 -8 1 -15 -4 -15 -6 0 -10 4
-10 10 0 5 -8 7 -17 4 -15 -5 -16 -4 -3 5 20 14 27 14 34 -4z m2776 5 c0 -5
-2 -10 -4 -10 -3 0 -8 5 -11 10 -3 6 -1 10 4 10 6 0 11 -4 11 -10z m191 -7
c13 -16 12 -17 -3 -4 -10 7 -18 15 -18 17 0 8 8 3 21 -13z m-2901 -23 c0 -5
-2 -10 -4 -10 -3 0 -8 5 -11 10 -3 6 -1 10 4 10 6 0 11 -4 11 -10z m34 -41
c-3 -5 -11 -9 -19 -9 -8 0 -16 4 -19 9 -3 5 5 9 19 9 14 0 22 -4 19 -9z m156
-74 c0 -7 -30 -13 -34 -7 -3 4 4 9 15 9 10 1 19 0 19 -2z m-3400 -105 c0 -28
-2 -30 -39 -30 -34 0 -40 4 -50 30 l-10 30 50 0 c48 0 49 -1 49 -30z m631 -17
l6 -33 -142 0 c-79 0 -149 2 -157 5 -8 3 -12 19 -11 38 1 17 2 32 2 32 1 0 67
-2 148 -5 l147 -5 7 -32z m2519 -47 c18 -19 42 -37 54 -40 12 -3 -17 -3 -64
-1 -47 3 -119 5 -161 5 -80 0 -102 9 -114 48 l-6 22 128 0 129 0 34 -34z
m1610 -6 c379 -10 1222 -34 1610 -45 208 -6 290 -13 290 -24 0 -4 -25 -18 -56
-31 l-57 -23 -396 6 c-460 8 -1836 44 -2501 67 l-245 8 260 -3 c269 -3 311 2
331 38 13 23 44 26 214 21 85 -2 333 -9 550 -14z m-4794 -30 c-1 -23 -5 -30
-21 -29 -11 0 -15 3 -8 5 6 3 9 16 7 30 -3 16 0 24 9 24 9 0 14 -11 13 -30z
m664 13 c0 -10 21 -37 47 -59 l48 -42 -36 -15 c-20 -8 -40 -20 -44 -27 -4 -6
-7 -82 -6 -167 2 -203 -6 -229 -99 -317 -90 -85 -116 -102 -133 -87 -8 6 -31
46 -51 88 -21 43 -48 96 -62 118 -75 123 -88 169 -86 303 0 42 6 72 18 90 18
29 73 82 84 82 4 0 12 11 18 25 12 25 12 25 157 25 131 0 145 -2 145 -17z
m2569 -48 c5 -6 -19 -64 -45 -105 -19 -32 -37 -63 -111 -200 -31 -57 -57 -85
-96 -104 -29 -13 -32 -13 -44 4 -7 10 -15 63 -19 118 -5 89 -3 124 20 262 3
14 5 29 5 34 1 9 281 0 290 -9z m3954 -22 c21 -19 22 -39 3 -46 -7 -3 -66 -3
-130 0 l-116 6 0 28 c0 35 16 39 135 32 62 -3 95 -10 108 -20z m-2123 -23
c212 -5 592 -14 845 -20 253 -6 488 -13 522 -16 61 -5 61 -5 53 -32 -5 -15
-11 -39 -14 -54 -5 -23 -13 -29 -48 -35 -31 -4 -37 -8 -23 -13 16 -6 17 -7 2
-13 -9 -3 -19 -2 -22 3 -7 11 -56 -6 -67 -23 -4 -7 -8 -8 -8 -2 0 7 -36 10
-100 8 -64 -2 -100 1 -100 8 0 6 -4 8 -9 4 -17 -10 -173 12 -182 27 -6 9 -9 9
-9 1 0 -7 -6 -10 -12 -8 -21 7 -80 16 -123 20 -22 2 -40 4 -40 5 0 1 -25 4
-55 6 -112 7 -155 12 -170 18 -8 3 -59 5 -113 3 -53 -2 -93 0 -87 3 6 4 -26 8
-72 8 -148 3 -203 7 -216 15 -8 5 -19 4 -28 -4 -12 -9 -20 -9 -39 1 -24 13
-105 10 -150 -5 -16 -6 -17 -5 -5 4 11 8 -4 11 -60 12 -75 1 -133 4 -147 9 -5
1 -11 2 -15 1 -5 0 -8 5 -8 12 0 8 -4 7 -10 -3 -7 -11 -10 -12 -10 -2 0 9 -7
11 -20 7 -11 -4 -20 -2 -20 4 0 6 -7 11 -15 11 -8 0 -15 5 -15 10 0 6 -3 9 -7
8 -15 -4 -53 13 -53 23 0 6 4 8 9 4 5 -3 12 -1 16 4 3 6 53 8 123 5 64 -2 290
-9 502 -14z m-127 -97 c-7 -2 -21 -2 -30 0 -10 3 -4 5 12 5 17 0 24 -2 18 -5z
m-545 -288 c3 -2 11 0 18 6 9 7 19 7 33 0 25 -14 41 -14 21 0 -11 7 -5 8 20 2
19 -4 58 -6 86 -5 29 1 64 -2 78 -8 16 -6 26 -6 26 0 0 6 9 6 23 1 13 -5 40
-7 60 -4 23 3 37 1 37 -6 0 -6 3 -10 8 -9 23 6 152 -16 152 -26 0 -6 4 -5 9 3
7 12 13 12 24 3 7 -7 17 -9 20 -6 3 3 12 2 19 -2 7 -4 19 -9 28 -10 8 -1 35
-5 60 -9 25 -4 60 -7 78 -6 17 1 32 -3 32 -8 0 -6 7 -7 17 -4 11 4 14 3 9 -6
-6 -8 -1 -10 17 -6 14 4 28 2 31 -4 4 -6 18 -11 31 -11 13 0 25 -5 27 -10 2
-6 21 -12 43 -13 22 -1 42 -5 45 -8 3 -4 25 -10 50 -13 77 -11 130 -25 147
-38 7 -6 29 -14 50 -19 21 -6 43 -11 48 -13 6 -1 27 -6 48 -11 20 -4 37 -11
37 -17 0 -5 4 -7 9 -3 12 7 91 -17 91 -27 0 -5 8 -8 18 -8 9 0 30 -7 46 -15
15 -8 37 -15 47 -15 11 0 19 -6 20 -12 0 -10 2 -10 6 0 4 10 9 8 20 -7 11 -16
20 -20 40 -15 21 6 25 4 20 -9 -3 -8 0 -18 8 -21 10 -3 12 0 8 12 -6 16 -5 16
14 0 11 -10 25 -18 31 -18 6 0 23 -11 38 -25 14 -13 30 -22 35 -19 5 3 9 -1 9
-9 0 -8 7 -17 15 -21 8 -3 15 -14 15 -25 0 -11 6 -26 13 -33 17 -17 11 -38
-11 -39 -11 0 -12 -2 -4 -6 6 -2 12 -16 12 -29 0 -16 -4 -23 -11 -18 -8 4 -9
-1 -4 -16 4 -12 3 -25 -2 -29 -18 -13 -43 -61 -37 -74 3 -8 -2 -17 -11 -21
-10 -3 -15 -12 -11 -21 4 -10 -1 -15 -15 -15 -11 0 -18 -4 -15 -8 3 -5 -1 -20
-9 -35 -7 -14 -11 -28 -7 -31 3 -3 0 -6 -7 -6 -7 0 -11 -6 -8 -12 2 -7 -7 -26
-19 -41 -13 -16 -24 -35 -24 -43 0 -8 -5 -14 -11 -14 -5 0 -8 -4 -4 -9 3 -5
-5 -18 -18 -28 -13 -10 -23 -26 -21 -35 1 -10 -6 -27 -17 -39 -10 -12 -16 -26
-13 -30 3 -5 0 -9 -5 -9 -6 0 -11 -8 -11 -17 0 -15 -2 -16 -10 -3 -8 12 -10
11 -10 -7 0 -14 -5 -20 -17 -19 -11 2 -27 -10 -41 -31 -19 -28 -27 -32 -49
-27 -18 5 -24 4 -19 -5 4 -6 3 -11 -2 -11 -6 0 -13 8 -16 17 -6 15 -8 15 -16
3 -10 -17 -116 -24 -125 -9 -4 5 -11 9 -17 9 -6 0 -8 -3 -5 -6 8 -9 -31 -44
-48 -44 -7 0 -15 -7 -19 -15 -3 -8 -1 -15 4 -15 6 0 10 -6 10 -12 -1 -7 -9 -3
-20 10 -13 16 -26 22 -39 17 -11 -3 -23 0 -27 6 -4 7 -3 9 4 5 6 -3 13 3 17
14 7 23 25 27 25 5 0 -8 5 -15 11 -15 5 0 7 5 4 10 -3 6 0 10 7 10 8 0 7 4 -4
11 -10 5 -39 9 -65 8 -26 -2 -83 1 -125 5 -54 5 -78 4 -78 -3 0 -6 -12 -10
-27 -10 -16 1 -21 3 -11 6 21 5 31 30 16 39 -7 4 -8 3 -4 -4 4 -7 1 -12 -8
-12 -8 0 -22 -7 -30 -16 -10 -10 -16 -11 -16 -4 0 7 -7 10 -15 7 -8 -4 -17 -1
-21 5 -5 7 -11 5 -20 -6 -8 -12 -17 -15 -26 -10 -15 10 -19 10 -70 12 -31 2
-36 5 -32 19 5 16 4 16 -5 2 -8 -12 -25 -15 -71 -14 -33 2 -64 5 -67 9 -4 3 1
6 11 6 9 0 15 4 12 9 -3 5 -24 2 -46 -5 -32 -11 -50 -12 -86 -3 -54 14 -66 7
-27 -16 15 -9 21 -14 12 -12 -12 4 -14 -1 -11 -25 3 -17 7 -25 11 -20 4 7 13
5 25 -4 11 -8 15 -14 8 -14 -6 0 -9 -6 -6 -13 3 -9 -6 -14 -30 -15 -36 -3 -58
15 -36 28 11 7 10 12 -3 25 -9 9 -22 13 -28 9 -7 -4 -9 -3 -6 3 7 12 -20 27
-41 24 -7 -1 -22 5 -33 13 -12 8 -28 12 -37 9 -11 -5 -13 -3 -7 7 5 9 4 11 -3
6 -9 -5 -9 -13 -2 -26 15 -28 12 -36 -5 -14 -11 14 -15 15 -14 4 4 -42 -16
-55 -41 -25 -7 8 -16 13 -20 10 -5 -3 -12 0 -16 6 -4 8 -3 9 4 5 7 -4 12 -1
12 9 0 9 -4 13 -10 10 -5 -3 -10 -1 -10 5 0 7 -6 8 -18 1 -13 -7 -23 -6 -31 2
-9 9 -14 8 -21 -3 -9 -13 -11 -13 -20 0 -7 12 -12 12 -22 2 -14 -14 -32 -16
-23 -2 3 5 0 8 -7 5 -7 -3 -35 -1 -61 4 -27 5 -50 5 -53 0 -9 -15 -64 -10 -70
6 -7 17 -40 20 -49 5 -4 -7 -13 -7 -26 0 -13 7 -19 7 -19 0 0 -5 -8 -10 -17
-10 -14 0 -15 2 -5 9 11 6 9 9 -7 14 -11 2 -22 0 -25 -7 -3 -8 -7 -8 -13 0 -4
6 -26 10 -48 9 -22 -2 -46 2 -54 9 -10 8 -15 8 -18 0 -2 -6 -15 -9 -29 -6 -16
3 -30 -1 -35 -9 -8 -11 -9 -9 -7 6 3 17 -2 19 -35 18 -22 -1 -41 -4 -43 -6 -3
-3 -28 4 -57 14 -56 21 -69 23 -49 10 18 -11 -93 -12 -122 -1 -12 4 -31 4 -44
-1 -15 -6 -21 -5 -17 1 7 11 -23 14 -175 15 -59 0 -108 -4 -112 -10 -5 -6 -8
-5 -8 3 0 10 -5 10 -20 2 -14 -8 -31 -8 -57 -1 -23 7 -41 7 -47 1 -6 -6 -16
-5 -28 1 -11 6 -32 11 -48 11 -16 1 -27 4 -25 8 2 4 -11 6 -30 4 -19 -1 -35 2
-35 7 0 5 -8 9 -17 9 -15 0 -16 2 -3 9 8 6 18 7 22 5 4 -3 5 2 2 11 -4 10 2
24 15 36 11 11 21 26 21 34 0 8 5 15 12 15 6 0 38 27 70 60 33 33 60 60 62 60
1 0 43 39 92 88 101 97 141 148 147 183 2 13 7 32 11 41 4 9 9 22 10 30 15 72
36 104 63 94 14 -6 14 -4 2 11 -9 11 -9 14 -2 9 13 -7 59 12 49 21 -6 6 40 33
56 33 5 0 25 15 43 34 18 19 35 32 38 29 3 -2 14 3 24 12 46 41 89 75 96 75 4
0 18 11 31 25 13 14 28 25 34 25 18 0 73 36 65 43 -3 4 2 7 13 7 10 0 32 11
48 25 17 14 42 25 58 25 16 0 27 4 23 9 -4 8 76 31 125 36 9 0 20 4 26 8 6 3
27 5 48 4 39 -4 50 9 14 15 -13 3 22 3 76 1 54 -1 101 -5 104 -8z m1879 -411
c-3 -3 -12 -4 -19 -1 -8 3 -5 6 6 6 11 1 17 -2 13 -5z m-1400 -836 c-3 -8 -6
-5 -6 6 -1 11 2 17 5 13 3 -3 4 -12 1 -19z m-562 -8 c3 -5 -1 -10 -10 -10 -9
0 -13 5 -10 10 3 6 8 10 10 10 2 0 7 -4 10 -10z m605 0 c0 -5 -2 -10 -4 -10
-3 0 -8 5 -11 10 -3 6 -1 10 4 10 6 0 11 -4 11 -10z m524 1 c3 -5 -1 -11 -9
-14 -9 -4 -12 -1 -8 9 6 16 10 17 17 5z m-1019 -11 c4 -6 10 -8 14 -5 5 2 17
-2 27 -10 17 -13 15 -13 -16 -4 -19 6 -40 11 -47 12 -7 0 -10 4 -7 9 7 11 21
10 29 -2z m855 0 c0 -5 -2 -10 -4 -10 -3 0 -8 5 -11 10 -3 6 -1 10 4 10 6 0
11 -4 11 -10z m-1090 -10 c0 -5 -7 -10 -16 -10 -8 0 -12 5 -9 10 3 6 10 10 16
10 5 0 9 -4 9 -10z m1316 -2 c-9 -5 -23 -5 -32 0 -12 6 -7 9 16 9 23 0 28 -3
16 -9z m74 2 c-19 -13 -30 -13 -30 0 0 6 10 10 23 10 18 0 19 -2 7 -10z
m-1074 -26 c1 -9 0 -13 -4 -10 -3 4 -7 14 -8 22 -1 9 0 13 4 10 3 -4 7 -14 8
-22z m409 -24 c3 -6 -1 -7 -9 -4 -18 7 -21 14 -7 14 6 0 13 -4 16 -10z m2668
-7 c-7 -2 -19 -2 -25 0 -7 3 -2 5 12 5 14 0 19 -2 13 -5z m-2463 -13 c8 -5 11
-10 5 -10 -5 0 -17 5 -25 10 -8 5 -10 10 -5 10 6 0 17 -5 25 -10z"/>
<path d="M7573 9894 c-6 -16 12 -34 32 -34 6 1 2 5 -7 11 -10 5 -15 16 -12 24
4 8 3 15 0 15 -4 0 -9 -7 -13 -16z"/>
<path d="M3150 9440 c-13 -8 -12 -10 3 -10 9 0 17 5 17 10 0 12 -1 12 -20 0z"/>
<path d="M3960 9097 c0 -2 6 -10 14 -16 11 -9 16 -9 22 1 4 7 4 10 -1 6 -4 -4
-14 -3 -22 3 -7 6 -13 9 -13 6z"/>
<path d="M2940 7631 c0 -6 4 -13 10 -16 6 -3 7 1 4 9 -7 18 -14 21 -14 7z"/>
<path d="M5472 8105 c-18 -8 -39 -12 -47 -9 -8 4 -15 2 -15 -3 0 -5 52 -9 115
-9 82 1 115 4 115 13 0 6 -4 15 -10 18 -5 3 -10 1 -10 -5 0 -6 -4 -9 -9 -6
-23 14 -108 15 -139 1z"/>
<path d="M2373 5870 c-1 -11 2 -20 6 -20 5 0 11 9 14 20 3 12 0 20 -7 20 -6 0
-12 -9 -13 -20z"/>
<path d="M2345 5850 c-3 -5 -1 -10 4 -10 6 0 11 5 11 10 0 6 -2 10 -4 10 -3 0
-8 -4 -11 -10z"/>
<path d="M2363 5823 c-38 -5 -41 -15 -12 -41 17 -17 18 -20 5 -25 -20 -8 -21
-37 -2 -37 8 0 19 15 24 33 10 33 21 78 19 75 -1 0 -17 -3 -34 -5z"/>
<path d="M2401 5779 c-14 -62 -14 -72 -1 -64 12 7 12 -2 0 -30 l-9 -20 -1 20
-1 20 -8 -20 c-5 -11 -4 -23 1 -26 6 -4 6 -9 -1 -13 -15 -10 -14 -23 2 -29 7
-3 13 3 14 12 1 9 13 51 27 93 31 91 31 85 7 98 -17 9 -20 5 -30 -41z m22 -9
c-8 -30 -21 -34 -15 -5 2 14 8 25 12 25 5 0 6 -9 3 -20z"/>
<path d="M2293 5741 c-12 -36 -17 -65 -12 -73 7 -11 9 -11 9 0 0 7 4 11 9 7
11 -6 42 92 34 111 -9 25 -19 15 -40 -45z"/>
<path d="M2294 5565 c-8 -19 12 -36 32 -28 17 6 10 37 -9 41 -10 2 -20 -4 -23
-13z"/>
<path d="M2380 5562 c0 -14 4 -21 10 -17 6 4 17 2 25 -5 9 -7 15 -8 20 0 9 15
-2 29 -23 26 -9 -2 -20 2 -24 8 -5 6 -8 1 -8 -12z"/>
<path d="M2375 5520 c3 -5 13 -10 21 -10 8 0 14 -5 14 -11 0 -6 -7 -9 -15 -5
-8 3 -15 1 -15 -4 0 -13 37 -13 45 0 3 6 0 17 -9 25 -16 17 -51 21 -41 5z"/>
<path d="M2441 5494 c0 -11 3 -14 6 -6 3 7 2 16 -1 19 -3 4 -6 -2 -5 -13z"/>
<path d="M2300 5086 c0 -9 30 -14 35 -6 4 6 -3 10 -14 10 -12 0 -21 -2 -21 -4z"/>
<path d="M3442 4101 c2 -7 7 -12 11 -12 12 1 9 15 -3 20 -7 2 -11 -2 -8 -8z"/>
<path d="M8790 4869 c0 -5 5 -7 10 -4 6 3 10 8 10 11 0 2 -4 4 -10 4 -5 0 -10
-5 -10 -11z"/>
<path d="M9015 3710 c-18 -8 -17 -9 8 -9 16 -1 26 3 22 9 -3 6 -7 10 -8 9 -1
0 -11 -4 -22 -9z"/>
<path d="M8980 3690 c11 -7 11 -10 2 -10 -7 0 -10 -5 -6 -11 4 -8 9 -7 15 2 9
15 3 29 -14 29 -7 0 -6 -4 3 -10z"/>
<path d="M4050 216 c0 -2 7 -7 16 -10 8 -3 12 -2 9 4 -6 10 -25 14 -25 6z"/>
<path d="M4550 170 c0 -5 10 -10 23 -10 18 0 19 2 7 10 -19 13 -30 13 -30 0z"/>
<path d="M4460 159 c0 -5 9 -9 20 -9 11 0 20 2 20 4 0 2 -9 6 -20 9 -11 3 -20
1 -20 -4z"/>
<path d="M4828 153 c7 -3 16 -2 19 1 4 3 -2 6 -13 5 -11 0 -14 -3 -6 -6z"/>
<path d="M4810 119 c0 -5 9 -9 20 -9 11 0 20 4 20 8 0 4 -9 8 -20 9 -11 1 -20
-2 -20 -8z"/>
<path d="M5010 126 c0 -3 9 -10 20 -16 11 -6 20 -8 20 -6 0 3 -9 10 -20 16
-11 6 -20 8 -20 6z"/>
<path d="M10208 7873 c6 -2 18 -2 25 0 6 3 1 5 -13 5 -14 0 -19 -2 -12 -5z"/>
<path d="M10138 7773 c6 -2 18 -2 25 0 6 3 1 5 -13 5 -14 0 -19 -2 -12 -5z"/>
<path d="M9880 7720 c0 -6 7 -10 15 -10 8 0 15 2 15 4 0 2 -7 6 -15 10 -8 3
-15 1 -15 -4z"/>
<path d="M10217 7713 c-10 -9 -9 -41 2 -47 4 -3 8 8 7 24 -1 17 -1 30 -2 30 0
0 -4 -3 -7 -7z"/>
<path d="M9978 7703 c6 -2 10 -9 7 -13 -3 -5 3 -8 14 -7 15 1 17 4 9 14 -6 7
-18 13 -27 12 -10 0 -12 -2 -3 -6z"/>
<path d="M10138 7693 c7 -3 16 -2 19 1 4 3 -2 6 -13 5 -11 0 -14 -3 -6 -6z"/>
<path d="M9640 7680 c0 -5 5 -10 10 -10 6 0 10 5 10 10 0 6 -4 10 -10 10 -5 0
-10 -4 -10 -10z"/>
<path d="M9935 7678 c11 -6 28 -18 38 -26 9 -8 17 -11 17 -6 0 10 -52 44 -67
44 -4 0 1 -6 12 -12z"/>
<path d="M9595 7670 c-7 -11 22 -26 32 -16 4 3 -2 6 -13 6 -16 0 -17 2 -4 10
9 6 10 10 3 10 -6 0 -15 -5 -18 -10z"/>
<path d="M10158 7668 c5 -5 16 -8 23 -6 8 3 3 7 -10 11 -17 4 -21 3 -13 -5z"/>
<path d="M9560 7655 c-7 -8 -17 -12 -23 -8 -6 3 -7 1 -3 -5 5 -8 0 -11 -11
-10 -31 3 -84 -14 -80 -26 6 -18 33 -18 50 -1 9 9 19 16 22 15 38 -2 55 2 49
11 -4 8 1 9 17 5 22 -6 22 -6 7 7 -10 8 -15 17 -11 20 3 4 4 7 1 7 -3 0 -11
-7 -18 -15z"/>
<path d="M9730 7660 c0 -5 9 -10 21 -10 11 0 18 -4 15 -9 -4 -5 -1 -11 6 -13
6 -2 -51 -19 -128 -37 -76 -18 -147 -35 -156 -37 -28 -8 0 -46 29 -39 12 3 25
0 28 -5 4 -6 3 -10 -2 -9 -25 4 -42 -2 -37 -15 3 -8 13 -12 25 -9 19 5 23 15
20 42 -2 7 2 10 8 6 6 -3 11 -2 11 4 0 6 7 7 17 4 12 -5 14 -3 8 8 -5 9 -1 8
11 -3 13 -12 24 -14 34 -8 13 8 12 10 -3 10 -15 0 -16 2 -5 14 11 11 17 11 37
-3 15 -9 22 -11 18 -3 -12 19 8 14 26 -6 18 -20 22 -33 10 -31 -27 4 -35 -1
-23 -16 8 -9 9 -15 2 -15 -6 0 -14 4 -17 10 -6 10 -55 10 -55 0 0 -3 4 -11 9
-19 7 -11 17 -12 52 -3 51 13 109 24 127 25 6 0 12 5 12 10 0 5 -9 7 -21 4
-15 -4 -18 -2 -10 7 7 8 5 12 -9 13 -11 1 -22 -2 -25 -8 -4 -5 0 -9 7 -10 17
-1 -23 -18 -42 -18 -10 0 -9 3 3 8 17 6 17 8 -4 34 -11 16 -19 30 -16 33 2 3
27 8 54 13 43 7 54 5 78 -15 19 -15 23 -23 14 -26 -8 -3 -2 -5 12 -5 26 0 33
17 14 34 -4 4 -5 2 -1 -4 14 -25 -11 -12 -44 22 -25 26 -36 32 -43 22 -6 -8
-7 -7 -3 5 3 11 -4 25 -21 38 -28 22 -43 25 -43 10z"/>
<path d="M9841 7653 c-18 -16 -19 -20 -6 -37 8 -11 17 -17 20 -14 3 3 -1 12
-9 21 -8 8 -12 17 -9 21 11 11 23 7 23 -8 0 -7 10 -21 23 -30 20 -15 20 -17 2
-11 -17 4 -16 2 5 -15 15 -12 33 -18 45 -14 45 13 69 14 36 2 -42 -16 -54 -54
-14 -43 14 3 39 9 55 12 l31 6 -41 37 c-47 44 -68 54 -76 35 -7 -19 14 -31 25
-14 6 10 9 10 9 2 0 -18 -34 -33 -51 -22 -7 5 -9 9 -4 9 8 0 12 37 6 58 -1 1
-11 -3 -23 -9 -23 -12 -23 -12 -4 10 19 21 19 21 -1 21 -12 0 -30 -8 -42 -17z
m177 -98 c-3 -3 -15 -7 -27 -10 -11 -2 -26 -7 -31 -10 -11 -7 -14 8 -3 18 3 4
20 7 36 7 17 0 28 -2 25 -5z"/>
<path d="M10008 7663 c6 -2 18 -2 25 0 6 3 1 5 -13 5 -14 0 -19 -2 -12 -5z"/>
<path d="M9636 7641 c-3 -5 0 -11 8 -14 8 -3 17 1 20 9 6 15 -19 20 -28 5z"/>
<path d="M10006 7635 c-6 -5 -9 -9 -7 -7 3 1 21 -12 40 -30 21 -19 27 -22 13
-7 -26 30 -29 47 -4 28 15 -13 16 -12 3 4 -21 26 -1 20 33 -10 l31 -28 -29 32
c-28 31 -58 38 -80 18z"/>
<path d="M9428 7633 c7 -3 16 -2 19 1 4 3 -2 6 -13 5 -11 0 -14 -3 -6 -6z"/>
<path d="M9365 7623 c-27 -7 -41 -20 -18 -18 24 3 72 24 53 23 -8 0 -24 -2
-35 -5z"/>
<path d="M10187 7558 c-7 -4 -25 -8 -40 -8 -16 0 -27 -4 -25 -9 8 -21 90 -101
98 -96 6 3 7 0 4 -8 -3 -8 -1 -18 5 -22 7 -4 11 8 11 34 0 22 -5 42 -12 44
-10 4 -10 6 0 6 7 1 12 15 12 35 0 29 -4 34 -20 33 -12 -1 -26 -5 -33 -9z"/>
<path d="M9393 7533 c-28 -5 -29 -11 -2 -34 17 -14 26 -16 52 -7 42 14 42 15
27 33 -12 15 -32 17 -77 8z"/>
<path d="M9905 7529 c-4 -6 -13 -8 -21 -5 -8 3 -14 -1 -14 -8 0 -8 8 -12 23
-9 13 3 24 11 24 19 0 17 -4 18 -12 3z"/>
<path d="M10080 7530 c0 -17 51 -92 58 -86 2 3 -10 26 -27 52 -17 26 -31 41
-31 34z"/>
<path d="M9845 7510 c-3 -5 -1 -10 4 -10 6 0 11 5 11 10 0 6 -2 10 -4 10 -3 0
-8 -4 -11 -10z"/>
<path d="M9770 7436 c0 -2 7 -9 15 -16 13 -11 14 -10 9 4 -5 14 -24 23 -24 12z"/>
<path d="M9810 7376 c0 -2 8 -10 18 -17 15 -13 16 -12 3 4 -13 16 -21 21 -21
13z"/>
<path d="M8570 7100 c-25 -4 -36 -8 -25 -10 11 -2 -7 -6 -40 -10 l-60 -7 57
-1 c31 -1 59 2 62 6 3 5 29 8 58 7 29 -2 40 0 23 3 l-30 5 25 7 25 8 -25 0
c-14 -1 -45 -4 -70 -8z"/>
<path d="M8368 7083 c12 -2 30 -2 40 0 9 3 -1 5 -23 4 -22 0 -30 -2 -17 -4z"/>
<path d="M8258 7073 c12 -2 32 -2 45 0 12 2 2 4 -23 4 -25 0 -35 -2 -22 -4z"/>
<path d="M8373 7063 c15 -2 37 -2 50 0 12 2 0 4 -28 4 -27 0 -38 -2 -22 -4z"/>
<path d="M8058 7053 c6 -2 18 -2 25 0 6 3 1 5 -13 5 -14 0 -19 -2 -12 -5z"/>
<path d="M8243 7053 c15 -2 39 -2 55 0 15 2 2 4 -28 4 -30 0 -43 -2 -27 -4z"/>
<path d="M8138 7043 c12 -2 30 -2 40 0 9 3 -1 5 -23 4 -22 0 -30 -2 -17 -4z"/>
<path d="M7893 7023 c9 -2 23 -2 30 0 6 3 -1 5 -18 5 -16 0 -22 -2 -12 -5z"/>
<path d="M7753 7013 c9 -2 25 -2 35 0 9 3 1 5 -18 5 -19 0 -27 -2 -17 -5z"/>
<path d="M7593 7003 c15 -2 37 -2 50 0 12 2 0 4 -28 4 -27 0 -38 -2 -22 -4z"/>
<path d="M7458 6993 c7 -3 16 -2 19 1 4 3 -2 6 -13 5 -11 0 -14 -3 -6 -6z"/>
<path d="M7303 6983 c15 -2 37 -2 50 0 12 2 0 4 -28 4 -27 0 -38 -2 -22 -4z"/>
<path d="M7173 6973 c9 -2 25 -2 35 0 9 3 1 5 -18 5 -19 0 -27 -2 -17 -5z"/>
<path d="M6463 6923 c9 -2 25 -2 35 0 9 3 1 5 -18 5 -19 0 -27 -2 -17 -5z"/>
<path d="M6213 6903 c9 -2 23 -2 30 0 6 3 -1 5 -18 5 -16 0 -22 -2 -12 -5z"/>
<path d="M5988 6883 c6 -2 18 -2 25 0 6 3 1 5 -13 5 -14 0 -19 -2 -12 -5z"/>
<path d="M5768 6863 c7 -3 16 -2 19 1 4 3 -2 6 -13 5 -11 0 -14 -3 -6 -6z"/>
<path d="M5673 6853 c9 -2 23 -2 30 0 6 3 -1 5 -18 5 -16 0 -22 -2 -12 -5z"/>
<path d="M5563 6843 c9 -2 25 -2 35 0 9 3 1 5 -18 5 -19 0 -27 -2 -17 -5z"/>
<path d="M5498 6833 c6 -2 18 -2 25 0 6 3 1 5 -13 5 -14 0 -19 -2 -12 -5z"/>
<path d="M5418 6823 c6 -2 18 -2 25 0 6 3 1 5 -13 5 -14 0 -19 -2 -12 -5z"/>
<path d="M5358 6813 c6 -2 18 -2 25 0 6 3 1 5 -13 5 -14 0 -19 -2 -12 -5z"/>
<path d="M5298 6803 c6 -2 18 -2 25 0 6 3 1 5 -13 5 -14 0 -19 -2 -12 -5z"/>
<path d="M4813 6669 c-6 -6 -17 -11 -26 -13 -21 -3 -48 -26 -42 -36 3 -5 -4
-15 -15 -23 -11 -7 -17 -17 -13 -20 3 -4 -1 -7 -10 -7 -15 0 -22 -11 -18 -32
0 -5 -3 -8 -8 -8 -5 0 -13 -10 -17 -22 -8 -27 -105 -190 -118 -200 -5 -3 -11
-15 -12 -25 -2 -9 -8 -19 -13 -21 -6 -2 -11 -9 -11 -15 0 -16 -99 -180 -114
-189 -6 -4 -8 -8 -3 -8 4 0 -3 -17 -16 -37 -13 -21 -26 -46 -30 -55 -3 -10
-11 -18 -17 -18 -6 0 -8 -4 -5 -10 3 -5 1 -10 -6 -10 -7 0 -10 -3 -6 -6 3 -4
-7 -32 -23 -63 -51 -101 -63 -162 -58 -285 6 -141 16 -170 171 -489 95 -195
134 -264 166 -296 22 -22 45 -41 51 -41 5 0 -11 19 -35 41 -47 43 -73 93 -245
459 -106 225 -126 382 -66 528 33 82 148 294 293 540 149 254 181 300 232 340
23 17 39 32 34 32 -5 0 -14 -5 -20 -11z m-33 -23 c0 -2 -8 -10 -17 -17 -16
-13 -17 -12 -4 4 13 16 21 21 21 13z"/>
<path d="M9296 6602 c-3 -5 1 -9 9 -9 8 0 12 4 9 9 -3 4 -7 8 -9 8 -2 0 -6 -4
-9 -8z"/>
<path d="M9175 6560 c3 -5 8 -10 11 -10 2 0 4 5 4 10 0 6 -5 10 -11 10 -5 0
-7 -4 -4 -10z"/>
<path d="M4625 6530 c-3 -5 1 -10 10 -10 9 0 13 5 10 10 -3 6 -8 10 -10 10 -2
0 -7 -4 -10 -10z"/>
<path d="M9196 6528 c3 -5 10 -6 15 -3 13 9 11 12 -6 12 -8 0 -12 -4 -9 -9z"/>
<path d="M4587 6479 c7 -7 15 -10 18 -7 3 3 -2 9 -12 12 -14 6 -15 5 -6 -5z"/>
<path d="M1191 6386 c-9 -10 -6 -17 13 -30 32 -20 50 -21 42 0 -3 9 -6 22 -6
30 0 18 -34 18 -49 0z"/>
<path d="M4430 6340 c-8 -5 -11 -12 -7 -17 5 -4 12 -1 17 7 7 10 10 11 10 3 0
-7 4 -13 8 -13 5 0 9 7 9 15 0 17 -15 19 -37 5z"/>
<path d="M863 6313 c9 -2 23 -2 30 0 6 3 -1 5 -18 5 -16 0 -22 -2 -12 -5z"/>
<path d="M1068 6293 c7 -3 16 -2 19 1 4 3 -2 6 -13 5 -11 0 -14 -3 -6 -6z"/>
<path d="M1160 6280 c25 -4 52 -4 60 1 9 5 -8 8 -45 7 l-60 -1 45 -7z"/>
<path d="M4436 6267 c3 -10 9 -15 12 -12 3 3 0 11 -7 18 -10 9 -11 8 -5 -6z"/>
<path d="M4297 6084 c3 -9 9 -12 12 -7 3 4 10 11 15 16 5 4 0 7 -12 7 -15 0
-20 -4 -15 -16z"/>
<path d="M4290 5950 c0 -5 5 -10 11 -10 5 0 7 5 4 10 -3 6 -8 10 -11 10 -2 0
-4 -4 -4 -10z"/>
<path d="M580 5865 c-19 -23 -4 -45 30 -45 27 0 30 3 30 30 0 25 -4 30 -24 30
-13 0 -29 -7 -36 -15z"/>
<path d="M4201 5844 c0 -11 3 -14 6 -6 3 7 2 16 -1 19 -3 4 -6 -2 -5 -13z"/>
<path d="M5070 5760 c-6 -11 -8 -20 -6 -20 3 0 10 9 16 20 6 11 8 20 6 20 -3
0 -10 -9 -16 -20z"/>
<path d="M9762 5620 c1 -23 4 -36 8 -30 6 10 1 70 -6 70 -2 0 -3 -18 -2 -40z"/>
<path d="M9450 5571 c-8 -6 -18 -7 -22 -5 -8 5 -12 -10 -9 -33 1 -7 -13 -20
-31 -29 -18 -9 -39 -24 -46 -33 -7 -9 -11 -11 -10 -6 4 19 -37 71 -54 67 -9
-2 -19 2 -23 8 -5 8 -12 7 -23 -4 -23 -20 -46 -24 -47 -7 0 26 -25 23 -35 -3
-11 -29 -14 -30 -40 -16 -13 7 -21 5 -31 -6 -24 -29 14 -44 112 -44 48 0 91
-4 94 -10 3 -5 25 -10 49 -10 23 0 46 -4 52 -9 12 -13 56 -17 72 -8 6 5 12 19
12 33 0 17 5 24 20 24 15 0 20 -7 20 -24 0 -19 5 -24 20 -23 18 1 20 8 20 60
0 57 -1 58 -35 73 -40 16 -45 17 -65 5z"/>
<path d="M7301 5542 c-1 -7 -5 -11 -10 -7 -5 3 -12 1 -15 -4 -9 -14 14 -25 26
-13 6 6 8 16 5 24 -4 10 -6 10 -6 0z"/>
<path d="M9671 5511 c-7 -5 -22 -6 -32 -4 -13 4 -19 0 -19 -11 0 -18 54 -23
65 -6 3 6 16 10 27 10 12 0 18 3 14 7 -11 11 -40 13 -55 4z"/>
<path d="M8531 5396 c-6 -7 -7 -17 -3 -21 4 -5 1 -5 -6 -1 -7 4 -20 2 -28 -5
-12 -10 -128 -12 -532 -10 -284 1 -519 4 -523 7 -10 6 -2070 6 -2077 0 -3 -4
350 -6 784 -6 434 -1 839 -3 899 -5 61 -2 481 -7 935 -10 454 -3 994 -7 1200
-10 223 -3 365 -1 350 4 -14 5 -229 9 -478 10 l-452 1 4 25 c3 14 2 25 -2 26
-4 0 -19 2 -34 4 -15 2 -32 -2 -37 -9z"/>
<path d="M9796 5383 c-6 -14 -5 -15 5 -6 7 7 10 15 7 18 -3 3 -9 -2 -12 -12z"/>
<path d="M4773 5333 c-13 -2 -23 -9 -23 -14 0 -5 49 -9 110 -9 91 0 110 3 110
15 0 12 -16 15 -87 14 -49 -1 -98 -4 -110 -6z"/>
<path d="M1230 5320 c-13 -9 -12 -12 4 -25 20 -15 20 -15 0 -15 -16 0 -17 -2
-4 -10 25 -16 30 -12 30 25 0 37 -5 41 -30 25z"/>
<path d="M9797 5303 c-3 -5 -1 -17 4 -28 6 -17 7 -16 6 8 -1 28 -3 32 -10 20z"/>
<path d="M7308 5260 c-15 -17 -15 -20 5 -37 11 -10 17 -12 13 -5 -4 6 -2 12 3
12 6 0 11 11 11 25 0 29 -8 30 -32 5z"/>
<path d="M8890 5269 c0 -7 -7 -17 -17 -24 -19 -14 -8 -39 13 -31 8 3 14 -1 14
-9 0 -7 -8 -15 -17 -18 -26 -5 327 -20 357 -14 14 2 -20 5 -75 6 -55 2 -120 6
-145 10 -38 6 -41 8 -22 15 26 9 30 36 5 36 -14 0 -15 2 -4 9 26 16 0 31 -55
31 -34 0 -54 -4 -54 -11z"/>
<path d="M9762 5260 c0 -14 2 -19 5 -12 2 6 2 18 0 25 -3 6 -5 1 -5 -13z"/>
<path d="M1240 5234 c0 -8 5 -12 10 -9 6 3 10 10 10 16 0 5 -4 9 -10 9 -5 0
-10 -7 -10 -16z"/>
<path d="M6608 5239 c-10 -5 -18 -7 -18 -2 0 4 -7 -3 -17 -16 -15 -23 -15 -25
2 -37 49 -36 148 7 103 44 -22 17 -52 22 -70 11z"/>
<path d="M7115 5231 c-14 -6 -20 -17 -20 -37 0 -24 -5 -30 -27 -32 -17 -2 -28
-9 -28 -18 0 -20 30 -30 41 -13 6 10 9 11 9 1 0 -7 -11 -17 -24 -23 -24 -11
-37 -30 -55 -81 -9 -23 -7 -30 12 -43 18 -12 19 -15 4 -15 -9 0 -17 -4 -17 -9
0 -21 13 -41 27 -41 8 0 12 4 9 9 -4 5 3 7 13 4 13 -3 21 1 24 14 3 10 3 -4 1
-32 -9 -94 -6 -131 10 -115 5 5 22 10 37 10 20 0 75 33 107 65 2 2 -1 20 -8
40 -12 35 -11 37 28 73 44 40 59 87 48 145 -14 73 -118 126 -191 98z"/>
<path d="M7540 5220 c0 -5 5 -10 10 -10 6 0 10 5 10 10 0 6 -4 10 -10 10 -5 0
-10 -4 -10 -10z"/>
<path d="M4804 5203 c4 -7 9 -22 11 -34 5 -26 84 -133 93 -125 3 3 14 -1 24
-11 29 -26 21 -4 -14 36 -18 20 -36 35 -41 33 -5 -1 -6 1 -3 6 7 12 -23 54
-35 47 -5 -3 -6 0 -4 8 3 7 -4 22 -16 33 -13 10 -19 13 -15 7z"/>
<path d="M8318 5203 c-10 -2 -18 -11 -18 -19 0 -12 10 -14 43 -12 29 2 42 8
42 18 0 15 -35 22 -67 13z"/>
<path d="M5867 5178 c-22 -12 -21 -20 6 -51 38 -44 65 -32 46 21 -12 35 -28
44 -52 30z"/>
<path d="M9288 5163 c12 -2 32 -2 45 0 12 2 2 4 -23 4 -25 0 -35 -2 -22 -4z"/>
<path d="M9741 5154 c0 -11 3 -14 6 -6 3 7 2 16 -1 19 -3 4 -6 -2 -5 -13z"/>
<path d="M9403 5153 c9 -2 25 -2 35 0 9 3 1 5 -18 5 -19 0 -27 -2 -17 -5z"/>
<path d="M9761 5134 c0 -11 3 -14 6 -6 3 7 2 16 -1 19 -3 4 -6 -2 -5 -13z"/>
<path d="M6070 5131 c0 -5 5 -13 10 -16 6 -3 10 -2 10 4 0 5 -4 13 -10 16 -5
3 -10 2 -10 -4z"/>
<path d="M1034 5105 c-5 -19 -9 -23 -15 -14 -4 7 -11 10 -15 6 -11 -10 17 -37
45 -42 13 -2 30 4 41 15 10 10 25 17 33 17 9 -1 16 3 16 8 1 6 -5 10 -11 10
-7 0 -15 3 -18 6 -3 4 -19 10 -37 13 -29 7 -33 5 -39 -19z"/>
<path d="M158 5033 c7 -3 16 -2 19 1 4 3 -2 6 -13 5 -11 0 -14 -3 -6 -6z"/>
<path d="M7675 4943 c-24 -225 -60 -373 -110 -458 -39 -67 -59 -84 -26 -23 36
67 39 80 11 47 l-20 -24 12 30 c6 17 16 36 21 43 6 7 8 15 5 17 -3 3 -17 -17
-32 -45 -15 -27 -32 -50 -37 -50 -6 0 -8 -4 -5 -8 3 -5 -21 -33 -52 -63 -45
-42 -73 -60 -133 -81 -90 -31 -113 -25 -68 18 37 35 63 91 84 182 9 37 27 95
41 130 21 54 24 68 14 97 -24 73 -75 78 -131 13 -21 -25 -69 -64 -106 -87 -37
-23 -88 -55 -113 -71 -71 -45 -85 -46 -86 -7 -7 173 -6 204 9 240 9 20 13 37
9 37 -26 0 -71 -144 -77 -243 -5 -82 -17 -101 -59 -92 -61 12 -81 12 -108 -1
-26 -14 -48 -42 -48 -63 0 -15 110 -63 131 -58 10 3 24 -2 31 -11 17 -20 87
-51 115 -52 36 0 37 19 3 66 -20 28 -26 44 -18 44 8 0 50 18 95 39 87 42 233
94 241 86 3 -3 -1 -5 -9 -5 -12 0 -12 -2 0 -9 19 -12 1 -57 -39 -95 -17 -15
-30 -36 -30 -47 0 -10 -5 -19 -11 -19 -6 0 -8 -7 -5 -16 5 -13 0 -16 -28 -12
-19 2 -32 0 -30 -4 3 -4 12 -8 20 -8 21 0 17 -28 -6 -42 -11 -7 -20 -16 -20
-21 0 -4 9 -17 20 -29 29 -31 27 -58 -2 -32 l-21 19 18 -28 c15 -23 16 -32 6
-53 -6 -14 -15 -23 -20 -19 -5 3 -12 1 -16 -5 -4 -6 -11 -8 -16 -5 -5 4 -9 1
-9 -4 0 -7 -23 -11 -55 -11 -30 0 -55 4 -55 9 0 5 -15 14 -32 21 -73 28 -178
82 -178 91 0 6 -4 8 -9 5 -5 -3 -16 9 -25 27 -8 17 -16 25 -16 16 0 -9 -7 -23
-16 -30 -14 -11 -18 -11 -29 4 -17 24 -28 21 -15 -3 6 -12 8 -29 5 -39 -7 -23
-39 -61 -52 -61 -5 0 -24 -18 -42 -40 -33 -40 -34 -40 -53 -23 -20 17 -21 17
-37 -5 -26 -37 -71 -115 -77 -134 -4 -10 -14 -20 -25 -23 -10 -3 -16 -12 -13
-20 3 -7 0 -16 -5 -20 -6 -3 -8 -11 -5 -17 5 -8 1 -9 -11 -4 -18 7 -18 6 0
-14 13 -14 15 -24 9 -28 -12 -8 -34 -46 -34 -59 1 -4 7 3 15 17 10 17 14 20
15 9 0 -9 -7 -22 -15 -29 -8 -7 -15 -9 -15 -5 0 5 -16 -8 -34 -27 -28 -29 -44
-37 -80 -40 -26 -2 -46 1 -46 6 0 14 -14 -2 -16 -19 -1 -8 2 -17 7 -21 5 -3 9
-10 9 -15 0 -6 -4 -7 -10 -4 -5 3 -10 0 -10 -7 0 -10 -2 -10 -9 1 -7 10 -13
11 -27 2 -18 -10 -18 -10 1 -12 18 -1 17 -2 -3 -7 -13 -4 -23 -11 -23 -17 0
-5 10 -13 23 -17 23 -6 8 -12 -24 -9 -9 1 -19 -2 -22 -8 -11 -17 173 -18 244
0 103 25 189 40 321 54 68 7 138 17 156 23 17 6 35 7 39 4 4 -4 4 -1 0 6 -4 7
-2 12 7 12 7 0 23 9 35 20 22 20 31 21 351 18 181 -2 332 0 336 4 4 4 0 21 -9
39 -12 24 -16 62 -16 148 -1 64 -7 145 -15 181 -8 36 -14 68 -15 71 0 4 14 12
31 19 34 14 65 73 111 207 15 44 29 68 41 71 10 3 14 8 9 11 -6 4 2 41 19 91
16 47 28 94 28 105 0 11 -11 -11 -23 -50 -43 -136 -123 -252 -201 -292 -27
-14 -25 -11 15 30 53 53 102 131 137 219 44 107 83 396 56 405 -7 3 -14 -16
-18 -54z m-805 -491 c0 -4 -9 -13 -20 -20 -16 -10 -20 -10 -20 2 0 8 6 17 13
19 19 8 27 8 27 -1z m-83 -257 c34 -14 35 -16 21 -37 -21 -32 -102 -38 -117
-10 -7 14 -6 25 5 40 18 26 41 28 91 7z m-12 -86 c-3 -4 2 -10 11 -13 8 -3 12
-10 9 -16 -3 -5 -1 -10 6 -10 6 0 9 -8 6 -19 -3 -13 1 -21 12 -24 9 -3 -7 -5
-34 -6 -59 -1 -75 11 -75 55 0 26 5 33 23 36 36 6 46 5 42 -3z m231 -145 c-3
-26 -6 -57 -6 -70 0 -18 -6 -24 -21 -24 -34 0 -59 19 -59 45 0 13 -9 40 -21
59 l-21 36 67 0 68 0 -7 -46z m-493 -180 c-10 -7 -25 -14 -33 -14 -9 0 -22 -6
-29 -12 -11 -11 -13 -10 -7 5 3 10 6 24 6 31 0 8 14 10 40 8 37 -4 39 -6 23
-18z"/>
<path d="M1126 4958 c-9 -12 -31 -30 -49 -39 l-32 -17 28 -11 c46 -18 73 -13
105 20 25 26 29 36 21 50 -13 26 -54 24 -73 -3z"/>
<path d="M7928 4783 c7 -3 16 -2 19 1 4 3 -2 6 -13 5 -11 0 -14 -3 -6 -6z"/>
<path d="M7450 4760 c0 -13 11 -13 30 0 12 8 11 10 -7 10 -13 0 -23 -4 -23
-10z"/>
<path d="M4648 4733 c7 -3 16 -2 19 1 4 3 -2 6 -13 5 -11 0 -14 -3 -6 -6z"/>
<path d="M6077 4690 c3 -20 1 -30 -6 -30 -7 0 -10 -4 -7 -9 3 -5 -1 -12 -10
-15 -11 -4 -15 -2 -11 8 3 8 -3 25 -13 38 -22 26 -25 21 -10 -16 7 -21 6 -26
-5 -26 -9 0 -12 6 -9 15 4 10 0 15 -15 15 -12 0 -25 -8 -28 -17 -6 -15 -7 -15
-14 3 -5 12 -7 4 -6 -26 1 -25 7 -49 12 -53 6 -5 4 -7 -5 -4 -8 2 -14 12 -14
21 1 9 -2 16 -6 16 -8 0 -24 -30 -22 -41 0 -3 -18 -6 -41 -6 -71 -1 -84 -5
-42 -13 54 -11 645 -13 645 -2 0 5 -36 8 -80 7 -50 -1 -80 3 -80 9 0 6 -5 4
-10 -4 -6 -10 -10 -11 -10 -2 0 6 -11 12 -25 12 -22 0 -24 2 -13 19 6 10 18
17 25 14 7 -3 13 -1 13 4 0 6 -12 9 -27 8 -16 -1 -27 -7 -25 -14 2 -8 -5 -10
-18 -7 -11 3 -30 9 -41 12 -17 5 -19 8 -8 16 11 7 9 9 -7 5 -19 -4 -21 -2 -14
29 5 21 4 37 -3 41 -5 3 -7 2 -4 -4 3 -5 -3 -17 -14 -26 -16 -14 -19 -14 -19
-2 0 8 -4 15 -10 15 -5 0 -10 9 -10 20 0 11 -4 20 -10 20 -5 0 -7 -13 -3 -30z
m-92 -40 c3 -5 1 -10 -4 -10 -6 0 -11 5 -11 10 0 6 2 10 4 10 3 0 8 -4 11 -10z
m145 -30 c0 -5 -4 -10 -10 -10 -5 0 -10 5 -10 10 0 6 5 10 10 10 6 0 10 -4 10
-10z m-56 -12 c-3 -4 -9 -8 -15 -8 -5 0 -9 4 -9 8 0 5 7 9 15 9 8 0 12 -4 9
-9z"/>
<path d="M10231 4694 c0 -11 3 -14 6 -6 3 7 2 16 -1 19 -3 4 -6 -2 -5 -13z"/>
<path d="M6050 4690 c0 -5 5 -10 11 -10 5 0 7 5 4 10 -3 6 -8 10 -11 10 -2 0
-4 -4 -4 -10z"/>
<path d="M6108 4693 c7 -3 16 -2 19 1 4 3 -2 6 -13 5 -11 0 -14 -3 -6 -6z"/>
<path d="M8196 4655 c18 -14 18 -16 2 -26 -10 -5 -18 -15 -18 -20 0 -6 12 -1
26 10 15 11 30 18 35 15 5 -3 9 -3 9 0 0 6 -55 36 -66 36 -4 0 1 -7 12 -15z"/>
<path d="M6177 4653 c-2 -5 5 -17 16 -28 11 -11 17 -15 13 -8 -3 6 0 13 6 15
8 3 5 9 -9 16 -12 7 -24 9 -26 5z"/>
<path d="M6583 4558 c-2 -24 29 -23 50 0 15 17 14 18 -16 17 -24 0 -33 -5 -34
-17z"/>
<path d="M6480 4550 c0 -4 7 -7 15 -6 23 3 26 12 5 13 -11 1 -20 -2 -20 -7z"/>
<path d="M7734 4517 c3 -33 11 -41 26 -32 7 5 8 10 3 14 -5 3 -15 15 -21 26
-10 18 -11 18 -8 -8z"/>
<path d="M9909 4373 c-13 -16 -12 -17 4 -4 9 7 17 15 17 17 0 8 -8 3 -21 -13z"/>
<path d="M7118 4353 c7 -3 16 -2 19 1 4 3 -2 6 -13 5 -11 0 -14 -3 -6 -6z"/>
<path d="M9619 4318 c-12 -22 -12 -22 13 -6 24 16 80 17 162 4 25 -4 23 -3 -9
9 -22 7 -66 14 -97 14 -49 1 -59 -2 -69 -21z"/>
<path d="M9599 4253 c-5 -14 -8 -31 -5 -37 2 -6 5 -4 5 6 1 9 13 26 29 37 26
20 26 20 4 21 -15 0 -26 -8 -33 -27z"/>
<path d="M5030 3941 c-7 -15 -6 -20 10 -24 11 -3 21 1 24 10 8 20 8 20 -9 27
-8 3 -19 -3 -25 -13z"/>
<path d="M4924 3894 c3 -8 6 -19 6 -24 0 -14 30 -20 55 -10 14 5 25 15 25 22
0 9 -3 9 -11 -2 -9 -12 -10 -11 -6 7 4 19 2 21 -11 14 -9 -5 -26 -5 -40 0 -20
8 -23 7 -18 -7z m40 -25 c-3 -5 -10 -7 -15 -3 -5 3 -7 10 -3 15 3 5 10 7 15 3
5 -3 7 -10 3 -15z"/>
<path d="M4480 3865 c-7 -8 -8 -15 -3 -15 6 0 26 -11 46 -24 l36 -25 -10 25
c-10 29 -33 54 -47 54 -5 0 -15 -7 -22 -15z"/>
<path d="M4680 3852 c0 -6 -10 -12 -22 -14 -12 -2 -23 -9 -24 -16 -1 -7 0 -8
3 -2 2 5 11 10 19 10 10 0 12 -5 8 -12 -6 -10 -5 -10 7 -1 11 9 25 10 49 3 20
-6 39 -6 50 0 10 5 20 6 24 3 3 -3 6 -2 6 4 0 6 -21 14 -46 18 -26 3 -53 9
-60 12 -8 3 -14 0 -14 -5z"/>
<path d="M4888 3849 c-3 -8 1 -20 8 -27 15 -14 17 -7 5 22 -6 15 -9 16 -13 5z"/>
<path d="M5878 3853 c-34 -4 -39 -8 -49 -44 -7 -21 -10 -42 -6 -45 11 -11 27
7 27 32 0 22 4 24 44 24 36 0 48 -5 66 -27 18 -24 27 -27 73 -25 119 5 159 14
191 42 17 16 28 31 24 35 -8 8 -316 15 -370 8z"/>
<path d="M2328 3763 c7 -3 16 -2 19 1 4 3 -2 6 -13 5 -11 0 -14 -3 -6 -6z"/>
<path d="M5714 3711 c-110 -50 -570 -177 -606 -168 -10 3 -16 2 -13 -2 6 -10
-312 -61 -445 -71 -464 -37 -557 -49 -519 -70 8 -5 61 -10 117 -11 72 -1 102
-5 106 -15 3 -7 28 -31 55 -53 28 -22 45 -41 38 -44 -6 -2 3 -12 21 -21 19
-10 32 -19 30 -22 -5 -4 -45 -12 -70 -13 -9 -1 -24 -8 -32 -17 -9 -9 -22 -17
-29 -18 -18 -3 -37 -16 -37 -27 0 -5 9 -17 20 -26 19 -17 19 -18 1 -38 -17
-19 -21 -32 -21 -70 0 -33 4 -44 13 -38 6 4 8 -1 4 -11 -4 -11 -3 -15 4 -10 6
4 15 1 19 -7 5 -7 28 -19 52 -26 40 -12 82 -12 491 -2 9 0 17 4 17 8 0 4 6 8
13 8 50 2 140 15 177 26 25 7 51 12 58 9 6 -2 15 3 18 12 3 8 12 12 20 9 8 -3
20 -1 27 5 6 5 20 8 30 7 9 -2 15 0 12 5 -3 4 7 11 23 15 15 3 55 20 90 36 35
16 70 29 78 29 8 0 14 6 14 13 0 9 2 9 9 -1 7 -11 9 -10 15 3 3 9 10 14 15 10
5 -3 12 -1 16 5 4 6 10 8 15 5 5 -3 14 4 20 15 6 11 15 20 20 20 9 0 53 40 79
73 11 14 11 21 -3 42 -9 14 -21 23 -26 20 -6 -4 -10 -1 -10 5 0 6 -4 8 -10 5
-5 -3 -16 -3 -22 2 -7 4 -21 9 -31 10 -26 4 -57 22 -57 33 0 5 9 12 20 15 11
4 18 11 15 16 -4 5 1 9 10 9 9 0 14 4 10 9 -3 5 4 12 15 16 11 4 18 11 15 16
-4 5 2 9 12 10 16 0 16 1 -2 8 -16 6 -14 9 15 15 19 4 29 10 22 13 -14 6 27
43 50 44 7 0 4 4 -7 9 -18 8 -18 9 -2 9 18 1 47 23 47 35 0 3 -10 6 -22 7 -18
1 -16 3 9 10 39 11 67 50 30 42 -23 -6 -23 -6 31 32 5 4 -21 55 -27 55 -3 0
-25 -9 -47 -19z m-350 -173 c-4 -6 2 -8 17 -3 19 5 21 4 9 -4 -24 -17 -40 -13
-40 10 0 11 5 17 10 14 6 -4 7 -11 4 -17z m6 -74 c0 -2 -9 -4 -20 -4 -11 0
-20 4 -20 9 0 5 9 7 20 4 11 -3 20 -7 20 -9z m-27 -41 c-7 -2 -19 -2 -25 0 -7
3 -2 5 12 5 14 0 19 -2 13 -5z"/>
<path d="M8316 3521 c-3 -5 1 -11 9 -14 9 -4 12 -1 8 9 -6 16 -10 17 -17 5z"/>
<path d="M3556 2462 c-3 -5 8 -6 25 -4 16 2 29 6 29 8 0 8 -49 4 -54 -4z"/>
<path d="M18 2417 c-10 -22 -13 -39 -8 -42 6 -3 10 -1 10 5 0 7 8 9 20 5 16
-5 19 -3 13 11 -4 12 -3 15 5 10 8 -5 10 -2 6 8 -3 9 -10 14 -14 11 -5 -3 -10
2 -12 11 -2 11 -9 5 -20 -19z"/>
<path d="M134 2429 c-3 -6 -15 -8 -26 -6 -18 5 -18 4 -5 -11 15 -17 17 -21 17
-42 0 -5 5 -10 10 -10 6 0 10 7 10 15 0 8 6 15 13 15 8 0 14 7 14 15 0 13 -2
13 -17 0 -23 -20 -34 -6 -13 17 9 10 13 18 10 18 -3 0 -9 -5 -13 -11z"/>
<path d="M416 2424 c-4 -9 -4 -19 -1 -22 3 -3 5 0 5 7 0 7 4 9 10 6 6 -3 7 1
4 9 -8 20 -10 20 -18 0z"/>
<path d="M196 2423 c-10 -10 -7 -23 5 -23 5 0 7 5 3 12 -4 7 -3 8 5 4 6 -4 9
-12 6 -17 -4 -5 -2 -9 4 -9 5 0 12 4 16 9 7 12 -29 33 -39 24z"/>
<path d="M267 2416 c-4 -10 -3 -15 3 -11 6 4 10 -5 10 -20 0 -14 4 -24 9 -21
11 7 9 24 -5 50 -10 16 -12 17 -17 2z"/>
<path d="M313 2400 c-12 -18 0 -40 14 -26 4 3 0 6 -8 6 -10 1 -9 3 4 11 9 5
17 14 17 19 0 16 -14 11 -27 -10z"/>
<path d="M383 2405 c0 -8 4 -12 9 -9 4 3 8 9 8 15 0 5 -4 9 -8 9 -5 0 -9 -7
-9 -15z"/>
<path d="M628 2403 c7 -3 16 -2 19 1 4 3 -2 6 -13 5 -11 0 -14 -3 -6 -6z"/>
<path d="M3537 2398 c-7 -19 14 -30 32 -18 9 5 10 10 2 14 -6 4 -11 1 -12 -6
0 -7 -4 -4 -8 6 -6 17 -8 17 -14 4z"/>
<path d="M80 2390 c-8 -5 -12 -11 -9 -14 2 -3 11 -1 19 4 8 5 12 11 9 14 -2 3
-11 1 -19 -4z"/>
<path d="M590 2390 c0 -5 5 -10 11 -10 5 0 7 5 4 10 -3 6 -8 10 -11 10 -2 0
-4 -4 -4 -10z"/>
<path d="M7925 2370 c9 -16 18 -30 21 -30 2 0 -2 14 -11 30 -9 17 -18 30 -21
30 -2 0 2 -13 11 -30z"/>
<path d="M165 2381 c-17 -7 -17 -8 8 -13 19 -4 27 -1 27 8 0 15 -6 16 -35 5z"/>
<path d="M470 2380 c-22 -7 -20 -8 12 -7 20 1 34 5 31 10 -5 8 -9 8 -43 -3z"/>
<path d="M560 2380 c-9 -6 -10 -10 -3 -10 6 0 15 5 18 10 8 12 4 12 -15 0z"/>
<path d="M210 2370 c0 -5 5 -10 10 -10 6 0 10 5 10 10 0 6 -4 10 -10 10 -5 0
-10 -4 -10 -10z"/>
<path d="M363 2325 c0 -8 4 -12 9 -9 5 3 6 10 3 15 -9 13 -12 11 -12 -6z"/>
<path d="M76 2321 c-3 -5 3 -11 15 -14 16 -4 18 -3 8 9 -13 16 -16 17 -23 5z"/>
<path d="M190 2320 c8 -5 20 -10 25 -10 6 0 3 5 -5 10 -8 5 -19 10 -25 10 -5
0 -3 -5 5 -10z"/>
<path d="M233 2315 c0 -8 4 -12 9 -9 5 3 6 10 3 15 -9 13 -12 11 -12 -6z"/>
<path d="M40 2299 c0 -5 5 -7 10 -4 6 3 10 8 10 11 0 2 -4 4 -10 4 -5 0 -10
-5 -10 -11z"/>
<path d="M4606 2303 c-14 -14 -4 -20 34 -21 22 -1 40 2 40 8 0 5 -6 7 -14 4
-8 -3 -23 -1 -34 5 -11 6 -22 7 -26 4z"/>
<path d="M4697 2293 c-4 -3 -7 -11 -7 -17 0 -6 5 -5 12 2 6 6 9 14 7 17 -3 3
-9 2 -12 -2z"/>
<path d="M5870 2234 c0 -13 -3 -14 -15 -4 -10 9 -15 9 -15 1 0 -6 -7 -11 -15
-11 -9 0 -12 -6 -8 -16 5 -14 7 -14 14 -1 6 9 17 13 29 10 11 -3 20 0 20 6 0
6 4 11 10 11 6 0 5 -10 -2 -25 -7 -16 -19 -25 -35 -25 -14 0 -23 -6 -23 -15 0
-13 4 -14 23 -4 19 10 21 10 12 -2 -5 -8 -2 -6 8 4 10 11 20 17 24 14 3 -4 14
-2 24 4 13 7 19 6 19 -1 0 -6 -10 -15 -22 -20 -17 -6 -18 -9 -6 -9 9 -1 20 4
23 9 4 6 10 8 15 5 4 -3 6 5 2 17 -5 22 -4 22 14 6 19 -16 20 -16 33 4 11 18
10 23 -5 37 -17 15 -17 15 -5 -1 13 -18 8 -38 -10 -38 -6 0 -7 5 -3 12 4 7 3
8 -4 4 -7 -4 -12 -2 -12 4 0 6 -4 9 -9 6 -5 -4 -11 -3 -14 1 -2 5 -2 2 0 -6 2
-9 -2 -11 -13 -7 -8 3 -18 6 -20 6 -3 0 -3 4 1 9 3 6 -4 15 -15 21 -16 9 -20
8 -20 -6z"/>
<path d="M4521 2227 c-6 -8 -8 -17 -4 -21 4 -4 0 -4 -10 0 -10 3 -17 1 -17 -5
0 -27 44 -6 46 22 2 21 0 21 -15 4z"/>
<path d="M6042 2208 c-2 -23 -7 -43 -16 -58 -7 -12 -6 -12 4 -3 7 6 18 9 25 7
19 -8 36 19 23 36 -8 12 -9 12 -4 -2 6 -21 -12 -34 -27 -19 -8 8 -8 11 0 11 6
0 10 7 9 15 -3 19 -12 28 -14 13z"/>
<path d="M5783 2178 c-22 -29 -21 -34 8 -36 20 -2 29 2 29 13 0 13 -4 14 -20
5 -22 -12 -27 -1 -8 18 7 7 9 12 6 12 -3 0 -10 -6 -15 -12z"/>
<path d="M3505 2150 c-3 -5 -1 -10 4 -10 6 0 11 5 11 10 0 6 -2 10 -4 10 -3 0
-8 -4 -11 -10z"/>
<path d="M5667 2139 c7 -7 15 -10 18 -7 3 3 -2 9 -12 12 -14 6 -15 5 -6 -5z"/>
<path d="M5718 2133 c6 -2 18 -2 25 0 6 3 1 5 -13 5 -14 0 -19 -2 -12 -5z"/>
<path d="M3699 2093 c-13 -16 -12 -17 4 -4 16 13 21 21 13 21 -2 0 -10 -8 -17
-17z"/>
<path d="M4468 2103 c6 -2 18 -2 25 0 6 3 1 5 -13 5 -14 0 -19 -2 -12 -5z"/>
<path d="M4140 2096 c0 -2 8 -10 18 -17 15 -13 16 -12 3 4 -13 16 -21 21 -21
13z"/>
<path d="M3757 2070 c19 -20 25 -22 35 -11 11 11 10 13 0 6 -8 -4 -23 1 -35
11 -22 18 -22 18 0 -6z"/>
<path d="M3884 2043 c1 -7 8 -19 16 -26 12 -10 12 -9 2 4 -8 10 -8 19 -1 26 6
6 5 10 -5 10 -7 0 -13 -6 -12 -14z"/>
<path d="M3805 2041 c-3 -5 -2 -12 3 -15 5 -3 9 1 9 9 0 17 -3 19 -12 6z"/>
<path d="M3854 1983 c4 -7 16 -18 26 -23 16 -9 18 -8 14 5 -4 9 -9 13 -12 11
-3 -3 -12 0 -20 7 -13 9 -14 9 -8 0z"/>
<path d="M3804 1973 c10 -10 46 -11 40 -1 -3 4 -15 8 -26 8 -12 0 -18 -3 -14
-7z"/>
<path d="M7124 37 c2 -15 6 -30 11 -35 4 -4 5 -1 1 5 -5 9 0 13 16 14 13 0 17
3 10 6 -6 2 -9 10 -5 16 4 6 0 8 -10 4 -9 -3 -18 -1 -20 6 -3 7 -4 0 -3 -16z"/>
<path d="M7470 30 c0 -5 5 -10 10 -10 6 0 10 5 10 10 0 6 -4 10 -10 10 -5 0
-10 -4 -10 -10z"/>
<path d="M4127 23 c-10 -9 -9 -23 1 -23 5 0 9 7 9 15 0 17 -1 18 -10 8z"/>
<path d="M4165 20 c-3 -5 -1 -10 4 -10 6 0 11 5 11 10 0 6 -2 10 -4 10 -3 0
-8 -4 -11 -10z"/>
<path d="M7203 23 c-15 -5 -17 -23 -4 -23 5 0 11 7 15 15 3 8 4 15 3 14 -1 0
-8 -3 -14 -6z"/>
<path d="M7288 23 c7 -3 16 -2 19 1 4 3 -2 6 -13 5 -11 0 -14 -3 -6 -6z"/>
<path d="M7353 15 c-9 -10 -4 -13 28 -12 21 0 39 5 39 10 0 5 -7 6 -16 3 -9
-4 -22 -2 -28 3 -7 6 -15 4 -23 -4z"/>
<path d="M7516 23 c-4 -4 -19 -9 -34 -11 -45 -6 -39 -13 9 -11 45 3 92 29 51
29 -10 0 -22 -3 -26 -7z"/>
<path d="M7603 23 c-13 -2 -23 -9 -23 -14 0 -10 28 -8 48 4 7 5 12 4 12 -2 0
-6 7 -11 15 -11 8 0 15 7 15 15 0 15 -19 17 -67 8z"/>
</g>
</svg>
